<svg width="1024" height="1024" version="1.1" xmlns="http://www.w3.org/2000/svg"><path transform="translate(501,79)" d="m0 0c1.58 0.02 1.58 0.02 3.18 0.04 28 0.4 55.8 3.36 83.4 8.08 0.75 0.13 1.5 0.26 2.28 0.39 12.4 2.13 12.4 2.13 18.2 4.49 1.62 0.33 3.25 0.62 4.88 0.86 7.17 1.24 14.1 3.27 21.1 5.33 1.03 0.3 1.03 0.3 2.07 0.61 100 29.4 100 29.4 114 55.1 1.88 4.15 1.88 7.61 1.56 12.1 1.73 0.28 1.73 0.28 3.5 0.56 4.43 1.13 6.85 3.17 10.1 6.27 2.88 2.62 5.93 4.98 9 7.36 15.5 12 29.9 25.2 43.8 39.1 0.74 0.74 1.49 1.49 2.27 2.26 4.65 4.67 9.06 9.48 13.4 14.5 0.99 1.13 1.97 2.26 2.96 3.39 51 58.7 83.8 132 96.4 209 0.15 0.89 0.3 1.78 0.45 2.7 3.05 20 3.61 40 3.55 60.2v3.93c-0.04 19.6-0.55 38.8-3.31 58.2-0.13 0.97-0.26 1.94-0.39 2.93-8.05 59.1-31.4 118-65.6 167-0.56 0.8-0.56 0.8-1.13 1.62-8.22 11.8-16.8 23.3-26.6 33.9-1.23 1.34-2.45 2.69-3.63 4.07-5.39 6.33-11.2 12.2-17.1 18-1.78 1.79-3.55 3.57-5.32 5.36-6.76 6.8-13.7 13.1-21.2 19-1.07 0.9-2.14 1.8-3.21 2.71-7.3 6.23-14.9 11.8-22.8 17.3-0.56 0.39-1.12 0.78-1.7 1.19-8.06 5.62-16.4 10.8-24.9 15.8-1.02 0.6-2.04 1.2-3.09 1.82-5.07 2.94-10.2 5.68-15.5 8.09-10.6 4.79-17.4 7.94-22.3 18.8-2.52 5.37-6.46 9.19-10.6 13.4-0.54 0.61-1.08 1.22-1.63 1.85-14 15.4-38.4 24.3-58.7 25.3-3.94 0.14-7.88 0.22-11.8 0.27-1.9 0.03-1.9 0.03-3.85 0.07-11.7-0.03-22.2-2.88-32-9.51-0.42-0.52-0.85-1.05-1.29-1.58-1.65-1.65-1.65-1.65-4.11-1.59-0.93 0.09-1.87 0.18-2.83 0.28-1.05 0.09-2.11 0.19-3.19 0.29-1.1 0.11-2.2 0.23-3.33 0.35-2.14 0.2-4.28 0.41-6.42 0.61-1.12 0.11-2.24 0.21-3.39 0.32-14.3 1.32-28.4 1.52-42.8 1.51h-3.38c-16.2-0.03-32.2-0.2-48.3-2.19-1.59-0.19-1.59-0.19-3.21-0.39-72.3-9.12-143-36.1-202-79.6-0.58-0.43-1.16-0.85-1.75-1.29-17.1-12.7-32.9-27.1-47.9-42.2-1.53-1.52-3.07-3.04-4.6-4.56-6.37-6.33-12.2-12.9-17.7-20-1.02-1.25-2.05-2.51-3.08-3.76-19.1-23.5-34.4-49.2-47.9-76.2-0.39-0.76-0.78-1.52-1.18-2.3-37.9-74.2-49.8-163-36.8-245 0.18-1.17 0.36-2.34 0.55-3.55 9.51-59.1 34.9-132 76.9-176 5.92-5.85 5.92-5.85 9.15-13.3-0.26-3.43-0.9-6.65-1.6-10-0.44-3.41-0.75-6.83-1.06-10.2-0.09-0.93-0.18-1.86-0.27-2.82-1.93-22-4.12-54.8 8.79-74.4 4.84-4.85 10.2-6.59 16.6-8.23 0.95-0.25 1.9-0.5 2.87-0.75 12.9-3.35 25.8-6.48 38.8-9.58 6.03-1.44 12-2.91 18.1-4.39 4.57-1.12 9.15-2.22 13.7-3.33 2.24-0.54 4.48-1.09 6.72-1.65 11.8-2.93 22.5-5.24 34.7-4.61 7.39-0.01 11.5-2.11 17.2-6.62 44.4-33 110-37.2 164-36.4z" fill="#FBF9F7"/><path transform="translate(750,184)" d="m0 0c4.08 0.57 6.8 2.89 9.94 5.38 0.85 0.66 0.85 0.66 1.72 1.34 5.61 4.42 11 9.06 16.5 13.7 1.41 1.17 2.83 2.32 4.27 3.46 7.03 5.6 13.4 11.6 19.7 18 1.63 1.65 3.27 3.29 4.91 4.93 5.52 5.54 10.9 11.2 16 17.2 0.54 0.63 1.08 1.26 1.63 1.92 18.2 21.4 33.7 44.5 47.4 69.1 0.48 0.85 0.95 1.7 1.44 2.58 6.56 11.9 12.3 24 17.5 36.5 0.4 0.97 0.4 0.97 0.81 1.95 7.98 19.1 13.9 38.5 19 58.6 0.31 1.2 0.61 2.41 0.93 3.64 5.85 24.4 9.31 48.4 9.56 73.5 0.01 1.27 0.02 2.54 0.03 3.85 0.343 46.6-0.386 63-10.3 105-0.27 1.15-0.53 2.3-0.81 3.48-8.18 34.6-21.4 67.7-39.2 98.5-0.86 1.52-1.73 3.05-2.59 4.57-11.6 20.4-25.6 39.4-41.2 57-1.03 1.18-2.05 2.36-3.07 3.55-9.08 10.6-18.6 20.8-29.2 29.9-1.13 1-2.26 2.01-3.39 3.01-8.84 7.84-18 15-27.6 22-0.85 0.62-1.69 1.24-2.56 1.88-20.6 14.8-45.2 31-69.4 39.1-1.26 2.48-1.26 2.48-2.31 5.5-6.81 17.1-19.5 27.8-36.2 35-12.3 5.07-24.1 6.72-37.3 6.9-1.05 0.02-2.1 0.04-3.18 0.07-11.2-0.04-19.9-3.78-28-11.5-1.88-2.26-3.42-4.51-5-7v4c-2.73 0.47-5.46 0.92-8.19 1.38-0.73 0.12-1.46 0.25-2.21 0.38-19 3.1-38 3.65-57.2 3.62-1.25-0.01-2.5-0.01-3.79-0.01-29.2-0.04-57.1-2.77-85.6-9.37-0.98-0.22-1.96-0.45-2.97-0.68-78.9-18.3-137-53.3-179-90.3-0.89-0.78-1.78-1.55-2.7-2.36-8.41-7.53-27-24.9-40.3-41.6-0.95-1.14-1.91-2.28-2.87-3.41-14.6-17.5-27.4-37.5-38.1-57.6-0.52-0.98-1.05-1.96-1.59-2.97-22.1-41.7-38.2-87.1-44.4-134-0.22-1.67-0.22-1.67-0.45-3.36-6.49-50.4-4.75-105 10.4-154 0.48-1.78 0.48-1.78 0.97-3.59 5.62-20.7 13.8-41.1 23-60.4 0.52-1.12 0.52-1.12 1.05-2.25 5.16-11 11-21.5 17.1-31.9 0.66-1.13 1.33-2.26 2.01-3.42 4.01-6.69 8.23-13.1 12.8-19.5 0.67-0.94 0.67-0.94 1.36-1.9 1.14-1.58 2.29-3.16 3.45-4.72 0.75-1.03 1.5-2.05 2.27-3.11 0.63-0.75 1.27-1.5 1.92-2.27h2c1.3 3.19 2.59 6.37 3.88 9.56 0.36 0.9 0.72 1.79 1.1 2.72 0.71 1.76 1.41 3.53 2.09 5.3 0.78 2.04 1.63 4.05 2.5 6.05 0.65 5.1-1.68 7.69-4.57 11.8-1.13 1.69-2.26 3.38-3.38 5.08-0.59 0.9-1.19 1.8-1.8 2.72-12.8 19.8-23.6 41.5-30.9 64-0.87 2.6-1.86 5.11-2.92 7.65-2.67 6.54-4.58 13.3-6.53 20.1-0.2 0.68-0.39 1.36-0.6 2.07-3.14 10.9-5.88 21.8-7.9 33-0.2 1.05-0.4 2.1-0.61 3.18-1.59 8.87-2.51 17.8-3.39 26.8-0.09 0.83-0.18 1.66-0.27 2.51-0.99 9.98-0.93 20-0.92 30v2.87c-0.504 39.5 5.59 79.1 18.2 117 0.48 1.42 0.48 1.42 0.97 2.87 9.69 28.5 22.4 56.2 38.9 81.4 1 1.53 1.97 3.08 2.95 4.62 15.6 24.2 35 48.1 56.8 67 2.6 2.25 5.11 4.59 7.63 6.94 6.32 5.73 13 11 19.8 16.1 0.64 0.49 1.27 0.98 1.93 1.48 27.5 19.6 57.2 38.3 89.5 49.2 3.15 1.12 6.17 2.36 9.24 3.67 25.9 10.9 55.4 17.5 83.3 20.6 0.86 0.1 1.72 0.2 2.61 0.31 35.8 4.04 72.8 3.01 108-2.31-0.18-0.61-0.36-1.22-0.55-1.85-3.84-13-7.57-26.1-11.1-39.3-1.71-6.32-3.5-12.6-5.33-18.9-0.24-0.84-0.49-1.67-0.74-2.54-1.77-6.1-3.56-12.2-5.34-18.3-0.88-3.03-1.77-6.06-2.65-9.08-4.37-15-8.81-30.1-13.3-45.1-0.67-0.04-1.35-0.08-2.04-0.12-3.12-0.19-6.23-0.41-9.34-0.63-1.06-0.06-2.12-0.12-3.21-0.19-12.6-0.92-20.8-4.84-29.4-14.1-8.77-10.4-7.25-24.2-7-37-0.89-0.25-1.77-0.5-2.69-0.75-8.17-3.08-13.8-10.2-18.2-17.6-2.97-6.8-3.23-12.2-2.78-19.5 0.84-9.61 0.84-9.61-2.54-18.2-2.86-1.92-5.77-3.42-8.84-4.97-6.56-5.78-11-12.6-12.3-21.3-0.47-11.3 2.54-23.6 7.34-33.7-0.48-0.49-0.97-0.97-1.47-1.48-4.36-4.61-7.84-9.34-11-14.8-0.34-0.6-0.68-1.2-1.03-1.82-4.81-8.69-4.98-19.6-2.47-29.1 7.85-21.9 31.2-37.2 50.9-47.8h2c-0.22-0.61-0.43-1.23-0.65-1.86-4.56-13.1-9.06-26.1-13.4-39.3l-1.41-4.2c-2.74-8.14-5.28-16.3-7.6-24.6-1.17-4.08-2.52-8.08-3.89-12.1-0.82-2.47-1.64-4.94-2.46-7.42-4.26-12.8-8.53-25.7-12.9-38.4-0.28-0.8-0.55-1.61-0.84-2.44-1.37-4.02-2.76-8.04-4.19-12-2.55-7.2-4.84-14.2-6.34-21.7-2.07-10.2-2.07-10.2-7.27-19-10.5-6.74-25.7-11.3-38-9-1.54-3.41-3.05-6.83-4.56-10.2-0.66-1.45-0.66-1.45-1.33-2.93-0.41-0.94-0.82-1.87-1.24-2.84-0.38-0.85-0.76-1.71-1.16-2.6-0.79-2.64-0.8-3.87 0.29-6.38 2.43-1.27 2.43-1.27 5.44-2.25 1.48-0.5 1.48-0.5 2.99-1.02 2.57-0.73 2.57-0.73 4.57-0.73 0.03 1.14 0.03 1.14 0.06 2.31 0.71 3.01 0.71 3.01 3.98 4.31 1.33 0.49 2.67 0.94 4.02 1.38 0.71 0.25 1.42 0.49 2.15 0.74 2.26 0.78 4.52 1.52 6.79 2.26 1.48 0.51 2.96 1.02 4.45 1.53 1.41 0.47 2.82 0.94 4.24 1.41 0.66 0.22 1.31 0.44 1.99 0.68 6.03 1.91 9.87 0.72 15.5-1.73 0.99-0.42 1.98-0.84 3-1.28 1.04-0.45 2.09-0.9 3.17-1.36 22.2-9.39 47.5-18.3 71.6-21.2 1.95-0.25 1.95-0.25 3.94-0.51 2.59 0.03 3.67 0.17 5.64 1.89 1.46 1.93 2.7 3.9 3.92 6 0.44 0.69 0.88 1.39 1.34 2.11 3.16 5.11 3.16 5.11 3.16 7.51-1.79 0.67-3.58 1.34-5.38 2-0.99 0.37-1.99 0.74-3.02 1.12-2.6 0.88-2.6 0.88-4.6 0.88 1.2 4.91 2.48 9.74 4 14.6 0.31 0.98 0.31 0.98 0.62 1.97 1.55 4.93 3.15 9.85 4.76 14.8 0.87 2.69 1.75 5.38 2.62 8.08 0.22 0.68 0.44 1.36 0.67 2.07 2.67 8.22 5.21 16.4 7.43 24.8 2.18 8.08 4.91 16 7.6 23.9 6.77 20.7 13.1 41.6 19.6 62.4 0.22 0.7 0.44 1.39 0.66 2.1 0.43 1.36 0.87 2.71 1.33 4.05 0.7 2.29 0.7 2.29 1.29 5.34 0.79 3.39 1.59 5.99 3.41 8.95 13.7 7.88 68 6.77 98 36 0.59 0.54 1.18 1.08 1.79 1.64 4.97 4.67 9.02 10.1 13.2 15.5 3.16 4.07 6.4 8.08 9.65 12.1 0.56 0.68 1.11 1.35 1.68 2.05 3.1 3.81 6.21 7.6 9.32 11.4 3.84 4.68 7.57 9.43 11.3 14.2 2.82 3.6 5.68 7.16 8.59 10.7 3.79 4.6 7.47 9.27 11.1 14 3 3.84 6.06 7.64 9.16 11.4 1.64 2.01 3.26 4.03 4.89 6.05 2.23 2.78 4.52 5.48 6.87 8.16 8.1 9.52 8.1 9.52 8.92 15.3-0.37 2.97-0.96 5.68-1.85 8.53-0.74 2.44-1.33 4.9-1.92 7.38-1.17 4.91-2.42 9.8-3.71 14.7-2-1-2-1-2.67-2.81-0.29-1.16-0.29-1.16-0.59-2.35-0.23-0.85-0.46-1.7-0.69-2.58-0.24-0.91-0.49-1.82-0.74-2.76-2.24-7.85-4.47-13.6-10.3-19.5l-3.96-4.32c-0.94-1.04-1.9-2.07-2.85-3.1-3.81-4.11-7.37-8.38-10.9-12.7-2.51-3.1-5.09-6.12-7.68-9.15-4.24-4.99-8.34-10.1-12.4-15.3-3.47-4.44-7-8.82-10.6-13.2-4.68-5.73-9.28-11.5-13.8-17.4-0.59-0.76-1.18-1.52-1.79-2.3l-6.57-8.49c-19.8-25.7-35.9-38.8-68.4-45.1-5.91-1.16-11.7-2.6-17.6-4.03-3.18-0.76-6.35-1.53-9.53-2.29-1.89-0.45-3.77-0.91-5.66-1.37-19.3-5.14-19.3-5.14-38.1-1.09-1.12 0.88-2.2 1.8-3.25 2.75-0.81 0.61-1.61 1.23-2.45 1.86-2.6 2.18-4.57 4.41-6.67 7.08-2.6 3.24-5.2 6.45-7.91 9.6-0.5 0.59-1.01 1.17-1.53 1.78-0.99 1.15-1.99 2.3-2.99 3.44-2.63 2.73-2.63 2.73-3.45 6.24 0.89 0.56 1.77 1.11 2.69 1.69 3.63 2.31 6.63 5.29 8.31 9.31-0.29 5.53-3.5 8-7.31 11.6-7.64 6.7-13.8 11.7-24.1 11.7-3.96-0.46-6.35-2.04-9.59-4.3 0.49 4.28 2.78 7.31 6 10 12.4 7.31 25.1 5.8 38.5 2.39 11.3-3.22 20.8-9.74 29.5-17.4 1.07-0.74 2.14-1.49 3.25-2.25 2.57-4.05 1.55-6.99 0.57-11.6-1.01-3.92-2.1-7.82-3.22-11.7-0.79-3.29-0.82-6.13-0.6-9.49l5-1c2.5 4.46 4.22 8.36 5.21 13.4 1.62 10.9 1.62 10.9 7.94 19.3 3.62 1.56 6.98 2.54 10.8 3.3 0.92 0.25 1.84 0.5 2.78 0.76 2.42 0.6 4.75 0.96 7.22 1.24 0.75 0.12 1.5 0.23 2.27 0.36 8.06 0.7 14.8-3.08 21.8-6.46 9.15-4.33 9.15-4.33 13.9-3.9 0 4 0 4-2.75 6.81-5 4.03-10.6 7.08-16.2 10.2 1.1 15.2 3.02 30.1 6 45 0.18 0.91 0.36 1.82 0.54 2.76 5.94 29.5 20.2 54 45.5 71.2 5.17 3.3 10.5 6.2 16 9 0.61 0.32 1.23 0.64 1.86 0.97 13.4 6.9 28.1 12.1 43.1 14l-1 4c-17.7 5.26-41.3 0.96-58-6l-1 3c-8.92-1.24-16.9-7.7-24-13 2.1 7.94 4.43 15.8 6.88 23.6 2.52 8.16 5.01 16.3 7.39 24.5 1.79 6.12 3.69 12.2 5.62 18.3 1.11 3.59 1.11 3.59 1.71 7.26 2.07 4.92 5.33 5.95 10.1 7.95 0.85 0.39 1.7 0.77 2.57 1.16 6.42 2.81 12.9 5.16 19.6 7.24 2.42 0.76 4.73 1.58 7.08 2.54 6.44 2.5 13.4 3.83 20.1 5.44 1.33 0.33 2.67 0.66 4 1-0.36 7.44-2.42 12.5-6 19-8.21-0.43-15.7-2.02-23.6-4.31-1.06-0.3-2.12-0.59-3.21-0.9-5.92-1.69-11.6-3.63-17.3-6.04-1.91-0.87-1.91-0.87-3.95-0.75 1.94 6.69 3.95 13.4 6 20 0.37 1.2 0.74 2.4 1.12 3.63 4.27 13.7 8.43 26.9 16 39.2 2.47 4.23 3.77 8.43 4.85 13.2 5.65-1.94 9.86-4.08 13-9.33 13.1-34.2 23.7-73.1 34-94.7 8.4 1.76 16.4 3.85 24.4 7.24 6.65 2.8 13.4 5.38 20.1 7.89 1.35 0.5 2.7 1.01 4.04 1.52 1.97 0.75 3.95 1.49 5.93 2.22 1.16 0.43 2.32 0.87 3.51 1.31 2.94 0.8 4.28 1.08 7.02-0.18l1-2c-1.15-0.13-1.15-0.13-2.33-0.27-4.99-0.99-9.63-2.69-14.4-4.41-1.55-0.55-1.55-0.55-3.14-1.11-2.18-0.77-4.36-1.55-6.54-2.33-3.31-1.18-6.63-2.36-9.94-3.53-2.13-0.76-4.26-1.52-6.38-2.28-0.98-0.34-1.96-0.69-2.97-1.05-6.16-2.2-12.2-4.55-18.3-7.02 0.54-6.72 1.92-12.6 4-19 6.59-20.8 12.1-41.8 17-63 5.71 0.76 11.1 2.37 16.6 4 1.03 0.3 2.06 0.6 3.12 0.91 12.8 3.8 25.6 7.94 38.3 12.1-0.52 6.32-1.67 11.7-3.81 17.7-0.55 1.56-1.09 3.12-1.62 4.69-0.27 0.77-0.53 1.54-0.81 2.34-1.79 5.36-3.27 10.8-4.76 16.3-4.35-0.4-8.35-1.02-12.5-2.31-0.87-0.27-1.75-0.54-2.64-0.81-0.94-0.29-1.87-0.58-2.83-0.88-2-0.61-4-1.22-6.01-1.82-2.04-0.63-4.08-1.25-6.11-1.87-1.58-0.48-1.58-0.48-3.19-0.97-2.57-0.78-5.13-1.56-7.69-2.34v3c1.42 0.31 1.42 0.31 2.87 0.63 7.37 1.69 14.4 3.71 21.4 6.56 7.94 3.2 16 6.06 24.1 8.81 1.18 0.41 2.36 0.82 3.58 1.24 1.12 0.38 2.23 0.75 3.38 1.14 0.99 0.33 1.99 0.67 3.01 1.02 2.73 0.62 4.12 0.77 6.65-0.4l1-3c-0.55-0.11-1.09-0.22-1.65-0.33-5.61-1.18-11-2.76-16.4-4.67 0.63-4.46 1.73-8.49 3.19-12.8 0.44-1.31 0.89-2.62 1.34-3.93 0.23-0.7 0.47-1.39 0.72-2.1 0.8-2.37 1.59-4.75 2.38-7.13 0.4-1.22 0.4-1.22 0.82-2.47 0.53-1.6 1.05-3.2 1.58-4.8 1.86-5.6 1.86-5.6 2.97-7.82 9.22 1.61 18.1 4.28 27 7l2-2c-4.14-2.22-8.02-3.68-12.6-4.82-1.34-0.34-2.67-0.68-4-1.02-0.71-0.19-1.43-0.37-2.16-0.56-4.11-1.09-8.2-2.27-12.3-3.44-0.88-0.25-1.75-0.5-2.66-0.76l-8.13-2.34c-10.4-2.97-20.7-5.94-31.1-8.83-0.72-0.2-1.44-0.4-2.18-0.61-5.26-1.46-10.5-2.79-15.8-4.04-2.09-0.58-2.09-0.58-3.09-1.58 0.19-6.07 1.53-12.1 2.85-18 0.26-1.22 0.26-1.22 0.53-2.45 0.56-2.55 1.12-5.1 1.68-7.64 0.38-1.74 0.76-3.49 1.15-5.23 0.92-4.24 1.85-8.47 2.79-12.7 3.95 0.53 7.81 1.11 11.7 2.13 0.87 0.23 1.75 0.45 2.65 0.68 0.95 0.25 1.89 0.5 2.87 0.75 12.2 3.14 24.6 5.87 36.9 8.55 8.25 1.79 16.4 3.77 24.6 5.99 4.32 1.16 8.66 2.19 13 3.15 1.13 0.26 1.13 0.26 2.29 0.52 3.45 0.77 6.47 1.23 10 1.23 6.84-21.8 12.5-44 14.7-66.8 0.32-3.19 0.32-3.19 0.81-5.44 2.53-13.6 1.73-28.1 1.75-41.9 0.01-3.34 0.04-6.68 0.07-10 0.1-20.2-2.01-40-5.91-59.8l-0.81-4.23c-11.1-59.1-38.5-114-75.6-161-0.69-0.89-1.38-1.77-2.09-2.68-12.7-15.9-27.3-31.2-42.9-44.3-1.36-1.19-1.36-1.19-2.74-2.41-8.97-7.82-18.5-14.7-28.3-21.6 1.49-4.53 4.06-7.94 7-11.6 3.62-4.6 3.62-4.6 7-9.38z" fill="#06050c"/><path d="m579 464c23.1 6.27 49.1 7.54 67.7 24.5 19.3 17.3 33.2 39.6 49.8 59.3 10.4 13.5 21.9 26.2 32.7 39.3 9.17 19 3.83 40.7 3.7 60.9-2.24 17.2-5.76 34.3-10.6 50.9-4.49 15.2-19.1 28.1-35.6 25.7-16.2-0.997-29.9-17.3-28.2-33.5 0.717-8.89-3.38-26.8 11.3-19.3 14.3 4.1 29.6 3.8 44.3 2.68 8.63-6.21-15.1-3-19.1-7.9-35.8-11.7-70.5-37.1-81.3-74.8-5.89-20.8-9.21-42.3-10.7-63.9 5.34-4.07 22.1-11.4 17.7-15.8-12.8 1.1-23 13-36.5 9.68-13.6-1.49-29-6.93-28.5-23.4 1.58-6.43-9.49-23.1-8.5-8.96 1.41 11.9 11.2 26.4-3.95 33.9-15.9 12.3-37.4 20.1-57.4 15.2-10.7-0.213-21.8-21.7-5.73-11.6 12.4 2.59 22.3-8.43 30-16.5 8.36-10.9-18.3-15.5-3.42-25.1 9.91-12.6 21.7-27.2 39.3-26.9 11.3-0.256 22.2 2.97 33.1 5.54z" fill="#fdd58c"/><path d="m311 138c5.6 13.5-12.4 12.7-21.1 15.9-22 5.5-43.8 12.1-65.8 17.5-6.2 1.54-11.8 3.87-4.79 9.38 23.5 33.3 32.4 73.9 40.8 113 2.78 15.2 2.63 30.7 3.01 46.2 5.7-0.48 5.8-15.1 9.29-20.8 1.35-9.38 2.57-21.2 13.8-23.6 26.5-9.17 52.8-19.3 79-29.3 9.8 1.33 11.4 16.5 13.9 24.8-30.7 16.7-61.6 33-92.4 49.5-9.31 2.73-18.4 16.4-28.3 10-35-24.3-54.4-65.7-60.6-107-4.4-25.5-6.07-52.6 2.98-77.3 5.59-6.77 16.1-5.33 23.8-8.37 27.3-6.35 54.6-13 81.8-19.6 1.55-0.214 3.12-0.305 4.69-0.304z" fill="#08070e"/><path d="m611 708c4.1 2.28 3.72 7.91 5.43 11.9 5.94 18.5 12.2 36.8 17.2 55.6 4.45 12.2 8.81 24.5 12.4 37 4.85 16.8 10.9 33.3 15.5 50.1 2.37 8.93-4e-3 19.4-8.21 24.5-8.97 5.76-19.7 8.65-30.3 9.64-7.99 0.815-16.2-2.62-20.2-9.84-4.83-8.29-5.18-18.2-8.91-27-6.64-19.9-11.9-40.3-18.7-60.2-5.7-18-11.6-36-17.1-54-2.85-6.9 8.05-5.69 11.2-4.89 5.3 14.4 8.78 29.6 15.3 43.5 0.826 3.68 7.79 10.6 4.31 2.4-2.85-11.8-8.21-22.8-11-34.6-0.105-5.56-9.44-14.6 0.394-14.5 12-3.18 26.2-8.39 30.7-21.2 0.955-2.73 1.52-5.57 1.96-8.42z" fill="#8a2a11"/><path d="m492 275c8.82 5.39 7.87 17.1 11.9 25.5 10.2 31.2 18.8 62.9 29 94.2 4.23 13.8 8.28 27.7 12.9 41.5-1.17 8.4-13.9 1.62-19.3 6.58-11.4 4.02-19.4 13.7-25.8 23.5-5.96 0.861-4.62-10.4-7.33-14.6-14.7-46-29.5-91.9-44.4-138-0.885-8.54-12.2-20.3-2.69-26.9 10.3-3.77 20.3-8.69 30.8-12.1 4.91-1.47 10.1-1.83 15 0.0148z" fill="#85260f"/><path d="m476 160c2.88 14.3 5.15 28.8 8.68 42.9 3.78 14 10 27.2 14.3 41.1-19.2 4.2-38.2 9.93-56.4 17.5-6.53 2.55-12.8 6.01-19.5 7.87-5.64 0.43-10.7-2.92-16-4.36-4.1-2.45-12.4-2.01-13.2-7.13 0.347-11 3.71-21.6 4.7-32.5 2.13-16.7 2.97-33.5 3.33-50.3 16.1-7.17 33.8-9.41 51-12.8 7.6-1.3 15.3-2.26 23-2.19z" fill="#696969"/><path d="m395 169c-0.178 15.7 0.809 31.4-1 47-4.63 0.0684-5.66-6.67-8.62-9.5-3.33-3.99-5.49-12.7-11.5-7.18-20.5 12.6-38.2 29.1-58.3 42.2-3.73-0.386-2.13 4.13-5.6 5.44 5.67 8.12 11.6 16.3 15.8 25.2-0.0285 5.97-10.4 5.05-14.8 8.16-11 3.88-21.8 8.57-33 11.6-4.59-24.1-9.58-48.2-18.9-71 1.16-5 10.3-4.86 14.7-7.62 26.3-9.44 52.8-18.2 79.6-26.1 13.4-3.94 25.6-10.6 37.8-17.4 1.15-0.64 2.44-1.03 3.77-0.884z" fill="#707071"/><path d="m762 651c12.3 2.03 24 6.34 35.9 9.88 7.37 2.33 14.7 4.72 22.1 7.12-0.644 12.6-6.69 23.8-9.6 35.9-0.487 3.47-1.43 6.36-5.4 4.66-9.5-1.48-18.5-5.19-27.7-7.72-2.74 0.28-9.98-5.52-9.29-0.606 2.38 2.38 8.21 2.06 11.8 3.72 11.7 3.46 22.9 8.71 34.6 12.2 5.87 1.95 11.8 3.87 17.6 5.8-7.02 11.1-15.6 21.2-24.2 31.1-3.19 5.64-9.21-0.308-13.9-0.9-17.4-6.1-34.9-12-52.1-18.8-1.71-2.81 0.509-7.65 0.874-11.2 3.39-12.6 7.71-24.9 10.9-37.6 3.02-11.2 5.79-22.4 8.4-33.6z" fill="#225198"/><path d="m731 591c7.06 7.29 15.9 13.8 18.6 24 1.65 6.79 4.95 13.5 5.04 20.5-8.08 28.6-14.8 57.6-23.9 85.9-4.07 12.8-8.02 25.7-11.8 38.6-2.08-4.61-9.28-1.3-13.3-3.66-16.4-4.17-32-10.8-47.3-18-7.12-4.45-6.92-13.7-9.61-20.8-4.94-18.3-9.49-36.7-16.3-54.4-1.66-10.3 7.61 1.68 11.7 3.12 5 2.69 11.5 5.32 15.3 3.25 1.82 3.37-0.762 13.6-0.0486 19.6-0.468 11 2.95 23.5 13.1 29.3 7.31 6.02 17.5 5.73 26.3 4.23 11.6-2.64 18.8-13.3 22.3-24 4.91-16 8.51-32.5 10.3-49.1 1.36-18.4 1.4-37-1.27-55.3-0.192-1.15 0.309-2.27 0.845-3.25z" fill="#faa03f"/><path d="m480 160c32.1-0.853 64.2 2.83 96 7 1.35 7.59 2.55 15.3 2 23-21.9 9.4-42.9 23.2-56.1 43.4-2.78 3.91-5.37 9.33-10.9 9.57-3.16-0.574-8.32 0.661-9.08-3.46-6.77-15.1-12.9-30.5-16.5-46.6-2.21-10.1-5.01-20.1-5.47-30.5-0.0111-0.819 6.2e-4 -1.64 0.0358-2.46z" fill="#979898"/><path d="m316 758c8.04 4.06 14.8 10.2 21.9 15.7 10.1 9.64 23.5 14.1 35.6 20.4 7.36 3.61 14.8 7.2 22.5 9.91-2.42 13.6-8.12 26.3-13.1 39.1-1.04 3.33-1.52 7.74-6.02 5.22-10.3-2.98-19.8-7.96-29.4-12.5-21.6-10.7-42-23.7-61.5-37.8 1.12-6.48 6.72-10.7 10.3-15.8 6.56-8.08 13-16.2 19.7-24.2z" fill="#da3602"/><path d="m501 128c25.1 0.83 50.3 2.12 75.3 5.1 1.18 9.29 1.15 18.7 1 28-19.3 2e-3 -38.4-3.57-57.6-4.86-13.8-1.23-27.6-1.73-41.4-2.14v-16c-3.28-0.989-1.61 2.97-2 4.86v11.1c-24.1 4.74-48.1 10.2-72 15.8-6.35 0.363-5-10.9-8.05-15.4-2.45-5.02-0.722-9.1 5.1-8.89 18.4-4.48 36.7-9.28 55-14 14.7-3.3 29.7-4.43 44.7-3.64z" fill="#666"/><path d="m403 808c10.3 1.15 19.9 5.61 30 7.94 19.1 5.04 38.5 8.21 58 11.1 0.111 15 9e-3 30-1 45-25.9 1.66-51.3-5.19-76.2-11.2-8.37-2.21-16.6-4.93-24.8-7.76-2.37-6.52 1.92-12.7 3.8-18.7 3.47-8.73 6.31-17.7 10.2-26.3z" fill="#dc3a03"/><path d="m838 330c4.46 6.61 7.44 14.1 11.3 21.1 7.42 15 15.6 29.6 21.5 45.3 3.16 8.16 3.37 17 3.25 25.6-12.5 4.52-25.1 8.91-38.1 11.9-4.98 1.36-3.71-5.99-5.6-8.97-7.77-25.4-18.1-50-31-73.3-1.62-2.74-3.47-5.61 1.05-6.32 10.5-5.26 21-10.5 31.5-15.6 2.01-0.816 4.23-0.808 6.13 0.32z" fill="#e94f03"/><path d="m412 742c7.34 1.58 14.3 4.34 21.2 7.29 13.8 5.31 28.2 8.62 42.8 10.7-0.418 7.03-0.34 14.1-1.1 21.1-1.86 5.71-1.58 11.9-2.39 17.8-0.503 5.38-1.02 10.8-1.52 16.1-20.9 0.217-41.4-5.49-60.7-12.9-6.21-2.43-12.3-5.12-18.3-8.1 1.65-8.92 5.95-17 9.03-25.5 3.48-8.41 6.44-17 10-25.4 0.25-0.417 0.598-0.76 0.94-1.1z" fill="#fd9403"/><path d="m220 409c10.4 1.52 20 6.16 29.9 9.59 9.09 3.36 18.2 6.72 27.1 10.4-2.42 12.9-6.01 25.6-7.81 38.6-0.844 5.44-1.56 10.9-2.19 16.4-20.3-0.0596-40.7 0.63-61-1-0.624-24.9 4.5-49.7 13-73l1-1z" fill="#f66403"/><path d="m843 513h42c4e-3 11.3 0.231 22.6-1.22 33.9-1.77 16.6-2.95 33.2-5.64 49.7-0.821 5.24-2.59 10.6-6.81 14.1-4.61 0.826-9.77-0.634-14.5-1.49-9.07-2.35-18.3-4.25-27.2-6.97-1.03-2.52 0.961-6.93 1.4-10.1 4.63-16.1 7.55-32.7 9.27-49.4 1.07-9.88 1.86-19.8 2.7-29.7z" fill="#da3e03"/><path d="m484 291c6.98 20.3 13.7 40.8 19.7 61.4 5.46 17.7 10.2 35.5 16.4 53 3.58 11.3 7.25 22.6 9.84 34.2-4.16 5.18-14.1 7.31-19 13.5-3.59 0.89-4.64-8.24-6.34-11.8-8.73-27.3-16.8-54.8-26.4-81.8-4.85-18.3-12.1-35.9-17-54.2-2.5-5.69-0.496-8.89 5.55-9.45 5.73-1.52 11.3-4.37 17.2-4.81z" fill="#ea7802"/><path d="m715 271c16.6 7.75 28.2 22.5 41.2 34.9 4.58 4.8 10.1 9.16 12.8 15.3 0.768 2.87-1.63 4.45-3.72 5.95-11.1 8.52-20.6 19-31.8 27.4-2.28 4.51-7.51 3.87-10.1-0.0694-9.12-9.69-19.9-17.5-30.4-25.7-2.81-2.79-8.36-4.55-9.65-7.64 3.62-8.76 9.5-16.3 14.3-24.4 5.52-8.78 11.2-17.5 17.4-25.8z" fill="#fd9f02"/><path d="m644 235c20.9 6.76 40.7 16.7 59.7 27.7 2.89 1.7 7.08 3.21 3.79 6.88-4.24 8.01-9.9 15.2-14.8 22.8-4.83 6.95-8.95 14.3-13.7 21.3-1.61 3.81-5.59 1.46-8.23 0.147-14.7-8.7-30.2-16-45.8-22.8 0.699-7.12 4.66-13.3 6.24-20.2 3.63-12.1 7.69-24.2 12.8-35.8z" fill="#fdaa02"/><path d="m230 647c3.76 5.5 6.22 11.8 9.57 17.5 6.72 12.5 14 24.8 23.4 35.5-2.3 6.04-8.45 9.01-13 13.1-8.71 6.87-17.5 13.6-26.3 20.4-3.73 2.04-5.09-3.42-7.28-5.47-12.8-17.6-24.4-36.1-34.7-55.3-2.09-4.36 2.83-6.43 6.09-7.69 12.4-5.62 24.6-11.6 36.4-18.4 1.91-0.815 4-0.57 5.8 0.39z" fill="#d83403"/><path d="m460 582c7.54 1.12 14.1 5.6 21.5 7.2 13.7 3.67 27.8 5.75 41.8 7.67 10.2 1.19 21.1 0.189 29.7-5.86 2.96-4.86 9.07-3.16 13.8-3.43 8.48-0.192 18 1.27 23.9 7.85 5.67 6.57 5.32 15.9 3.99 23.9-0.11 3.8-5.2 10.5-7.2 7.85 3.01-5.58 1.29-12.2 1.78-18.2-0.191-3.75 0.918-8.12-2.27-10.9-7.44-2.22-15.3-1.19-23-1.78-5.55-0.0719-9.32 4.25-10.6 9.33-1.88 5.9-2.54 12.5-1.03 18.5 1.09 3.18 7.41 10.6-0.182 9.02-23.8 0.421-47.6-2.21-70.9-6.85-9.55-2.19-19.5-6.88-24.5-15.7-3.4-7.19-1.28-15.4 0.328-22.8 0.504-2.08 1.02-4.32 2.78-5.73z" fill="#fdd589"/><path d="m206 579c4.25 10.1 5.42 21.2 9.5 31.4 3.37 9.58 7.42 18.9 10.5 28.6-15.7 7.29-31.1 15.2-46.6 22.8-4.91 0.544-4.04-6.36-6.38-9.08-6.44-15.7-13.8-31-18.6-47.3-1.28-5.35-1.53-10.9-1.41-16.4 15.8-3.17 31.5-6.77 47.3-9.85 1.88-0.19 3.77-0.207 5.65-0.153z" fill="#d73004"/><path d="m393 301c4.74 1.2 9.63 2.09 14.2 3.99 4.19 2.08 5.02 7.15 6.58 11.1 2.67 9.14 5.2 18.4 8.94 27.1 0.542 3.95 4.9 10.3-1.06 11.5-13.3 6.89-25.6 15.4-37.6 24.3-6.65-5.02-11.6-11.7-17-18-10.6-10.8-17.7-25-20-40 12.6-6.61 25.4-12.6 37.5-20.1 2.73-1.21 5.69-0.701 8.46 0.06z" fill="#fdbf0c"/><path d="m144 508h54c1.1 12.6 1.84 25.2 2.79 37.8 0.691 5.95 2.18 11.8 3.24 17.7-0.308 2.98 1.7 8.49-3.29 8.15-15.2 2.9-30.3 6.49-45.6 8.84-2.35 0.379-5.13 1.28-4.74-2.19-3.13-15.6-5.51-31.5-6.25-47.4-0.276-7.61-0.177-15.2-0.179-22.9z" fill="#de3e09"/><path d="m613 522c5.5 9.82 7.72 21.1 11.1 31.8 9.06 31 26.1 60.5 52 80.5 14 12.1 29.6 22.1 45.6 31.2 4.4 2.82 5.18 7.06-0.996 6.75-4.66 2.59-2.53-2.91-7.46-1.04-10.9-1.06-21.2-5.53-31.3-9.44-26.6-11.3-51.3-30.5-63.6-57.2-7.2-16.6-10.2-34.7-13-52.5-1.1-7.94-1.68-15.9-2.37-23.9 3.32-2.01 6.49-4.31 10-6z" fill="#f99d3d"/><path d="m288 614c4.7 8.26 8.09 17.2 13.1 25.3 4.21 7.17 8.91 14.1 13.9 20.7-2.27 6.09-8.66 8.79-13.3 12.7-9.75 7.19-19.2 14.8-28.8 22.1-4.17 3.13-7.41-3.27-9.43-6.25-10.2-15.1-19.1-31-27.5-47.1-2.71-3.89 1.91-7.16 5.25-8.28 13.6-6.48 27.2-13 40.7-19.5 1.98-0.857 4.2-0.811 6.09 0.264z" fill="#fc7b02"/><path d="m269 552c3.02 15.9 7.22 31.6 12.9 46.8 1.03 3.43 2.48 8.21-2.35 8.96-15 7.51-30.1 14.7-45.3 21.7-5.16 2.51-4.7-5.64-6.78-8.66-4.32-11.4-8.94-22.9-11-35-1.58-7.61-3.74-15.1-4.44-22.9 1.08-2.27 6.24-1.57 8.94-2.64 10.8-2.19 21.7-3.58 32.6-5.45 5.15-0.789 10.1-2.69 15.4-2.79z" fill="#fd8102"/><path d="m380 197c3.86 4.85 7.16 10.1 10.5 15.3 1.01 1.68 0.888 4.47 3.46 3.68-1.08 10.2-2.17 20.3-3.4 30.5-0.279 3.79-3.04 7.08-6.85 7.61-7.18 1.73-13.9 4.98-20.9 7.35-10.7 3.95-21.4 8.02-32 12.3-4.62 1.96-7.19-2-8.84-5.75-4.23-7.38-8.39-14.8-13-21.9 1.33-0.667 2.67-1.33 4-2-0.769-3.01 3.08-3.56 4.89-5.07 12.9-8.2 24.2-18.6 36.7-27.3 6.74-4.78 13.2-9.95 20.2-14.3 1.59-1.08 3.53-0.997 5.23-0.244z" fill="#9b9c9c"/><path d="m637 230c-1.08 9.99-5.11 19.3-8.26 28.8-2.97 7.83-6.15 15.6-8.36 23.7-0.261 3.78-2.58 5.95-6.46 5.22-5.32-0.611-10.3-2.74-15.6-3.69-16.5-3.69-33.4-4.79-50.3-4.98-0.591-5.6-2.03-11.2-1.49-16.9 0.533-3.96 3.29-6.89 6.48-9.03 7.67-5.63 15.8-10.8 24.8-14.1 13.3-4.97 27.4-7.17 41.2-10.2 5.49-1.01 11.6-2.63 16.7 0.558l0.605 0.308z" fill="#fdc517"/><path d="m269 708c6.34 8.02 13 15.8 20 23.3 5.64 6.45 11.8 12.4 18.3 18 3.48 1.84 2.51 4.98 0.547 7.68-4.31 6.48-9.92 12-14.6 18.1-4.4 5.3-8.18 11.1-13.2 15.9-7.46-2.34-12.2-9.01-18.1-13.7-9.93-8.78-19.1-18.4-28.4-27.8-2.16-2.84-7.71-7.25-5.39-10.5 11-10.1 23.7-18.2 35-27.9 1.77-1.3 3.47-3.35 5.91-3.02z" fill="#da3702"/><path d="m808 387c10.9 22.1 19.9 45.5 22.5 70.2-0.133 3.4 1.58 8.7-0.315 10.9-14.7 1.39-29.4 3.34-44.2 2.92-1.82-9.8-3.54-19.7-7.09-29-3.6-9.78-7.39-19.5-12.4-28.7-1.46-3.3-0.506-6.43 3.2-7.22 11.6-6.24 23.4-12.2 34.9-18.7 1.08-0.4 2.25-0.275 3.38-0.303z" fill="#fc8203"/><path d="m206 491c20-0.131 40 0.171 60 1 0.333 17.7 0.667 35.3 1 53-10.1 2.5-20.3 4.49-30.7 5.93-8.78 1.4-17.5 2.84-26.3 4.07-3.12-21.2-4.33-42.6-4-64z" fill="#fd9e03"/><path d="m360 710c7.43 2.47 12.6 8.66 19.2 12.6 8.56 5.75 17.7 10.6 26.8 15.4-4.26 10.5-9.99 20.4-15.2 30.4-3.5 6.58-7.1 13.1-10.8 19.6-9.87-3.02-18.5-8.92-27.4-14-9.88-6.03-19.6-12.6-27.6-21 2.22-7.19 8.65-11.7 13.1-17.4 7.32-8.5 14-17.6 21.9-25.6z" fill="#fd7702"/><path d="m350 428c8.4 2.94 14.7 9.48 22 14.3 8.62 6.27 17.3 12.5 26 18.7-3.86 9.16-8.09 18.2-10.3 28-1.02 3.98-1.9 8.01-2.68 12-17.6 0.201-35.2-1.29-52.7-2.48-3.8 0.815-5.25-2.43-4.05-5.51 1.71-22.6 9.81-44.4 21.1-63.9l0.305-0.554z" fill="#fdd536"/><path d="m324 563c6.49 19.8 14.2 39.4 25.3 57.2 1.88 3.9-1.27 7.24-4.08 9.52-8.11 7.4-16.8 14.2-24.2 22.3-4.35-0.84-5.86-5.41-8.11-8.62-8.69-14.4-17.9-28.5-25.6-43.4-3.73-7.17-5.68-15.2-5.4-23.3 0.228-3.17-1.31-7.89 3.46-7.29 11-2.02 21.9-4.43 33-6.15 1.87-0.206 3.76-0.287 5.64-0.194z" fill="#fdc61a"/><path d="m600 641c5.7 6.07 6.56 15 5.75 22.9-0.968 5.18-4.34 10.9-10.1 11.4-2.74 0.401-8.85 0.948-9.51-0.321 3.33-3.4 8.77-1.7 12.4-4.24 2.69-4.66 0.987-11 1.16-16.3-0.569-4.14-1.23-11.3-6.57-11.1-9.19 0.0905-19.1-1.46-27.5 3.15-3.53 5.63-2.53 12.7-1.78 18.9 0.442 4.96 5.06 8.27 6.78 12.2-1.11 2.53-6.06 1.99-8.75 2.8-12.4 1.34-25-0.135-37.4 0.325-9.79-0.201-19.8 0.702-29.4-1.35-5.84-1.68-10.5-6.09-14.3-10.7-4.64-6.37-4.83-14.8-4.09-22.3 0.474-4.34 1.84-8.61 6.84-6.03 13.8 2.59 27.7 4.24 41.7 4.27 15.7 0.531 31.3-1.97 46.6-5.44 7.07-1.12 14.3-3.67 21.5-2.31 2.58 0.728 4.64 2.54 6.72 4.16z" fill="#fbd084"/><path d="m242 356c7.34 1.09 11.4 8.34 18.1 10.8 3.95 0.112 6.65-3.48 10.2-4.72 3.85-2.2 7.71-5.14 12.4-5.08 7.56 3.47 13.3 9.77 20.6 13.7 3.34 2.19-0.676 5.61-1.42 8.24-4.87 9.15-10.2 18.1-14.6 27.5-2.53 5.14-4.95 10.3-7.26 15.6-18-5.19-35.3-12.5-53-18.5-5.55-1.44-3.64-7.31-1.7-10.9 4.9-12.5 10.8-24.5 16.7-36.6z" fill="#fc8003"/><path d="m578 137c19.3 0.273 37.8 5.95 56.7 9.45 12.2 2.53 24.4 4.85 36.3 8.55-0.0702 7.34 0.699 14.8-1 22-18.7 1.12-37.4 2.54-55.8 5.94-4.76 0.993-9.38 2.58-14.3 2.95-5.52 0.614-11 1.93-16.4 3.11-2.66 0.704-3.09-0.989-2.82-3.44-0.879-14.4-2.29-28.8-2.74-43.2-0.0306-1.79-0.0359-3.58-0.0153-5.37z" fill="#696969"/><path d="m320 668c4.04 1.84 5.68 6.32 8.64 9.37 7.74 9.48 16.6 17.9 25.3 26.5-2.33 7.49-9.11 12.1-13.6 18.2-6.22 7.94-13.2 15.3-19.3 23.3-2.41 3.52-7.3-1.32-9.8-3.16-5.82-5.87-11.7-11.7-17.6-17.5-6.14-6.14-11.8-12.7-17.3-19.4-2.7-1.62-0.667-5.25 1.16-6.82 10.5-7.05 20.7-14.5 30.3-22.6 3.44-2.5 6.29-5.97 10.2-7.78 0.669-0.141 1.35-0.0601 2.02-0.0387z" fill="#fd8302"/><path d="m725 368c15.1 12.2 25.3 29.3 33.9 46.4 2.52 5.12 4.87 10.3 7.11 15.6-13.9 6.54-28.1 12.5-42.3 18.3-2.9 0.68-7.48 3.45-7.88-1.24-4.26-10.6-8.54-21.3-15.2-30.6-2.37-3.9-5.43-7.41-7.46-11.5-0.435-3.85 3.27-6.53 5.5-9.22 8.84-9.21 17.3-18.8 26.4-27.8z" fill="#fdbc03"/><path d="m483 762c15.6 1.43 31.3 1.51 47 2 5.38 15.6 9.17 31.8 13.5 47.7 0.406 2.74 1.87 7.51-2.53 6.8-8.83 1.07-17.8 0.448-26.6 0.614-9.87-0.0943-19.8 0.277-29.6-0.365-2.63-0.354-6.9-0.872-5.81-4.51-0.126-16 2.22-31.9 3.62-47.8 0.148-1.49 0.297-2.98 0.447-4.46z" fill="#fc7504"/><path d="m551 341c12.4-0.528 24.6 2.44 36.6 5.47 14.2 3.86 28.1 9.24 41.4 15.5-1.07 7.6-6.18 13.7-9.64 20.3-4.13 7.01-8.23 14.1-12.7 20.8-2.34 3.5-7.08 3.15-10.5 1.62-7.82-3.12-15.9-5.63-24-7.91-3.63-0.0588-6.55-2.88-7.08-6.43-3.99-14.7-7.61-29.5-12.5-43.9-0.552-1.84-1.06-3.69-1.57-5.54z" fill="#fdea6b"/><path d="m730 214c6.19 1.02 10.5 6.15 15.4 9.54 9.87 7.43 18.8 16 28.1 24.1 4.29 4 8.35 8.22 12.5 12.4-8.59 10.7-30.4 30.3-30 32-5.58-0.524-8.36-6.01-12.3-9.18-10.3-9.13-21.1-17.8-32.9-24.9-4.23-1.65-4.21-6.44-1.41-9.4 6.8-11.6 13.5-23.2 20.7-34.5z" fill="#fa6602"/><path d="m877 430c4.75 24.7 8.15 49.8 8 75-14-0.0438-28 0.245-42 0-2.09-2.3-0.829-5.66-1.26-8.46-0.39-16-1.47-32.2-5.52-47.8 0.175-2.81-2.03-8.12 2-8.48 10-3.1 20-6.37 30-9.56 2.88-0.705 5.85-0.805 8.8-0.728z" fill="#e34e05"/><path d="m579 464c17.3 4.97 35.9 6.12 52.2 14.3 24.5 12.2 38.3 36.9 55.4 57 13.7 18 28.5 35 42.8 52.5 4.64 8.64-10.3-0.939-13.6-3.32-17.6-13.3-29.3-32.5-43.7-48.9-12.7-14.4-23-31.1-37.8-43.5-10.9-6.93-24.2-8.04-36.5-11.3-17.3-3.88-34.6-7.63-51.9-10.9-11.6-1.54-19.7 7.79-26.8 15.6-4.95 3.9-8.87 14.6-16.2 9.93-2.92-7.24 8.24-13.3 11.8-19.5 8.05-11.3 21.5-19.1 35.7-17.4 9.7 0.671 19.1 3.35 28.5 5.62z" fill="#f9f6ee"/><path d="m407 596c5.94 7.92 11.4 16.5 19.3 22.6 3.5 3.18 6.34 7.35 7.65 11.9-0.0623 6.45-4.63 11.5-7.45 17-4.18 6.9-8.14 14-12.7 20.6-2.65 4.15-7.88-0.0715-11.2-1.42-11.2-6.8-20-16.7-28.6-26.4-4.59-5.22-8.93-10.7-13.1-16.2 1.71-5.43 7.56-7.23 11.9-9.96 10.3-5.74 20.6-11.7 30.9-17.4 0.969-0.535 2.08-0.638 3.17-0.596z" fill="#fdce26"/><path d="m171 372c7.56 1.09 14.1 5.3 21.1 8.15 7.96 3.62 15.9 7.22 23.9 10.8-1.2 11-5.93 21.1-8.96 31.6-1.96 6.38-3.68 12.8-5.04 19.4-14.2-1.38-28.1-4.97-42.1-7.6-2.21-1.13-7.65 0.156-6.74-3.33 1.05-12.8 5.59-24.9 9.48-37 2.54-7.43 5.3-14.8 8.37-22z" fill="#f15e03"/><path d="m833 476c1.67 13.7 0.996 27.6 1.12 41.4-0.0812 8.54-0.402 17.1-1.12 25.6-11.9 0.582-23.4-2.75-35-4.66-4.01-0.756-8.02-1.53-12-2.34-0.0309-3.62-0.355-7.3 0.62-10.8 1.02-7.92 0.605-15.9 0.928-23.9 0.157-7.42 0.307-14.8 0.451-22.3 15-1.37 29.9-3.24 45-3z" fill="#fdb60d"/><path d="m635 367c10.2 1.46 18.8 7.83 26.6 14.2 8.65 7.15 16.1 15.6 23.5 24 1.99 2.57 6.99 5.37 3.49 8.75-2.67 2.69-6.55 3.66-9.77 5.57-8.87 4.48-17.8 8.81-26.3 13.9-4.55 1.79-7.81-2.63-10.9-5.12-9.47-7.71-20.6-12.9-31.5-18.3 5.9-15.6 15.8-29.2 25-43z" fill="#fde969"/><path d="m150 440c16.8 2.49 33.4 5.68 50 9-1.98 16.9-3.26 34-4 51h-52c0.392-20.1 0.829-40.4 6-60z" fill="#e85e03"/><path d="m395 169c-0.185 15.7 0.811 31.4-1 47-3.55 0.742-4.29-4.15-6.35-6.09-2.86-4.32-5.79-8.59-8.65-12.9-8.89 3.47-16.1 9.95-23.9 15.2-12.9 9.58-25.3 20-38.7 28.9-4.39 3.22-5.85-1.84-7.39-4.99-4.64-9.4-9.72-18.6-14-28.1 2.53-4.42 8.6-4.09 12.8-6.2 14.3-5.08 28.9-9.46 43.5-13.8 11.7-3.56 23-8.44 33.6-14.7 3.32-1.49 6.36-4.41 10.1-4.33z" fill="#727272"/><path d="m592 685c5.09 3.98 5.73 10.9 5.58 16.9 0.344 3.9-1.39 7.87-4.72 9.99-10.3 7.75-23.4 10.1-35.9 11.5-12.4 1.11-25 1.14-37.4 0.374-5.68-0.129-10.4-4.01-13.7-8.31-4.68-6.21-4.24-14.4-3.84-21.8 1.44-3.41 6.6-1.03 9.63-1.78 22.6-0.0155 45.3-1.08 67.4-6.11 4.27-0.829 8.65-1.24 13-0.782z" fill="#f6a94d"/><path d="m780 503c-0.0567 26.2-5.47 52-13 77-6.17-2.61-9.31-8.89-13.5-13.7-9.51-11.6-18.9-23.4-28.3-35.1-2.51-2.67-0.549-7.07-0.906-10.5 0.254-5.56 0.477-11.1 0.73-16.7 18.3-0.979 36.7-1.12 55-1z" fill="#fdc711"/><path d="m773 329c5.28 1.7 7.36 7.22 10.1 11.5 6.88 11.4 14.5 22.5 20.1 34.6 1.87 3.6-0.633 7.3-4.17 8.41-10.8 5.65-21.4 11.5-32.4 16.7-2.86 1.22-6.4 3.03-7.55-1.04-6.38-9.9-13.3-19.4-20.7-28.6-2.21-2.32-4.64-6.24-2.77-9.25 9.12-9.33 20.1-16.6 29.4-25.7 2.5-2.37 5.09-4.66 7.97-6.56z" fill="#fd9b02"/><path d="m769 437c4.63 11.4 7.19 23.5 9.55 35.5 1.82 7.71 1.52 15.7 1.45 23.5-18.3 0.443-36.7 1.13-55 1-0.654-8.87-1.35-17.8-3.39-26.4-1.04-4.45-1.9-8.96-1.61-13.6 15.1-7.26 30.6-13.6 46.2-19.7 0.915-0.316 1.89-0.33 2.84-0.32z" fill="#fdc510"/><path d="m791 266c14.5 14.5 26.2 31.5 37.4 48.5 1.31 2.99 5.98 7.98 0.592 8.99-11 5.49-22 11.1-33.2 16.2-4.36 2.09-5.84-2.89-7.73-5.76-7.18-11.6-15.8-22.3-25.5-32-2.28-2.43-2.16-6.66 0.672-8.61 9.26-9.11 18.5-18.2 27.8-27.3z" fill="#f45503"/><path d="m327 505c9.51 0.404 19 0.443 28.5 1.16 9.42 1.38 19 1.36 28.5 1.84 0.432 12.4 1.22 24.7 3 37-9.67 3.08-19.1 7.01-28.9 9.61-7.62 2.06-15 4.85-22.6 7.16-2.32 0.699-4.37 0.337-4.18-2.46-3.92-17.8-4.68-36.1-4.39-54.3z" fill="#fdd22f"/><path d="m400 675c6.54 0.436 11.4 5.38 16.9 8.27 9.03 5.41 18.6 9.88 28.3 13.9 3.77 1.59 2.56 5.86 0.894 8.58-5.04 11.1-10.2 22.1-15.1 33.3-8.81-1.05-16.6-5.63-24.5-9.34-11.3-5.74-22.1-12.4-32.5-19.7 0.707-5.75 5.88-9.22 9.08-13.6 5.43-6.36 10.1-13.3 15.3-19.8 0.515-0.539 1.05-1.06 1.57-1.59z" fill="#fdbf0c"/><path d="m209 189c13.4 11.9 19.6 29.4 25.1 45.9 7.82 24.1 14.2 48.7 18.2 73.7 1.22 7.06 2 14.2 1.67 21.4-16.9-13.2-27.4-32.9-34.6-52.7-4.32-12.6-7.42-25.6-10.3-38.5-2.19-13.8-1.08-27.8-1.23-41.7 0.0838-2.7 0.388-5.41 1.12-8.02z" fill="#8c8c8c"/><path d="m284 435c12.8 1.27 24.8 6.21 37.2 9.31 3.25 0.902 6.51 1.8 9.76 2.69-1.69 9.07-5.32 17.6-7.11 26.7-1.63 7.04-2.89 14.2-3.89 21.3-14.9 1.57-30 2.29-45 2-1.23-21 3.78-41.8 9-62z" fill="#fd9402"/><path d="m674 327c6.6 1.48 11.5 6.48 16.9 10.2 10.7 7.76 20.6 16.6 30.1 25.8-0.51 5.25-5.28 8.22-8.61 11.7-4.73 4.45-9.11 9.22-13.3 14.2-2.91 3.15-6 6.13-9.06 9.12-5.76-2.23-8.75-8-13.2-11.9-7.53-7.55-16-14-24.8-20.1 0.944-7.28 6.05-12.9 9.56-19.1 4.12-6.64 8.31-13.2 12.4-19.9z" fill="#fdc510"/><path d="m354 631c5.89 2.2 8.83 8.21 13 12.5 7.38 8.6 15.6 16.5 24.7 23.2 3.09 2.58 0.252 7.42-2.09 9.69-7.45 8.65-14.7 17.5-21.6 26.6-5.55-0.654-8.85-5.63-12.8-9.01-6.82-6.49-13.7-12.9-19.5-20.4-3.72-4.68-7.7-9.16-11.7-13.6 2.47-6.06 8.35-9.55 12.8-14 5.64-5.1 11.2-10.2 17.2-15z" fill="#fdc414"/><path d="m492 275c7.9 4.39 7.59 14.5 10.6 21.9 8.54 25.2 15.5 50.8 23.4 76.2 6.58 19.5 12 39.3 18.4 58.8 3.01 4.09-1.06 10.4-3.95 5.5-4.76-13-8.19-26.3-12.9-39.3-6.52-23.8-15.1-46.9-21.8-70.6-4.42-14.1-8.61-28.3-13.7-42.2-3.08-7.89-13.3-4.77-19.9-4.24-8.19 1.57-16 4.77-23.2 8.84-4.5 9.73 1.83 19.4 4.96 28.4 3.87 14 7.96 28 13 41.6 5.56 1.68 1.64 13.2 9 11.1 3.97 1.59 6.38-2.41 6.35-3.1 8.46 25.8 16.4 51.7 25 77.5 4.28 7.47-0.728 14.7-6.15 19.8-4.73 6.16-4.82-7.31-6.76-10.2-11.6-36.8-23.7-73.5-35.4-110-5.36-16.6-10.7-33.2-16.6-49.7-2.12-9.28 10.5-9.32 16.1-12.9 8.98-3.16 17.7-8.47 27.4-8.43 2.08 0.2 4.09 0.784 6.09 1.32z" fill="#973113"/><path d="m390 554c3.65 11.5 7.56 23 12.5 34 2.18 3.96-3.34 4.56-5.69 6.34-12.2 6.41-24.1 13.5-35.7 20.8-3.01 1.93-6.48 0.0151-8.44-2.49-5.86-7.04-8.77-15.9-11.9-24.4-1.61-5.19-4.08-10.1-5.43-15.4-1.01-4.36 3.59-4.93 6.74-5.77 13.5-3.41 26.6-8.05 39.7-12.5 2.7-0.651 5.5-0.717 8.26-0.59z" fill="#fddc48"/><path d="m312 378c5.71 0.791 9.75 5.33 14.4 8.29 8.18 6.05 16.8 11.5 25.1 17.4 1.87 1.64 4.99 3.48 1.83 5.68-7.33 10.3-13.8 21.2-19.3 32.6-10.5-0.356-20.1-5.25-30.2-7.66-5.71-1.44-11.4-3.1-16.8-5.34 3.59-13.7 10.7-26.1 16.8-38.8 2.22-4.39 4.48-8.89 8.23-12.2z" fill="#fdc211"/><path d="m547 826c3.31 9.8 6.79 19.6 9.19 29.6 1.17 4.15 2.8 8.17 3.71 12.4 0.421 2 0.182 3.7-2.29 3.19-19.5 1.64-39.1 1.96-58.6 1.79v-45c10.8-0.341 21.6-0.428 32.4-0.931 5.18-0.404 10.3-1.2 15.6-1.07z" fill="#dc3703"/><path d="m785 626c21.8 3.24 42.8 10.2 64.3 14.9 6.39 1.63 12.9 2.9 19.1 5.01 2.44 0.851 2.92 2.72 1.56 4.67-3.32 8.15-6.64 16.3-9.96 24.4-8.58-0.98-16.6-4.32-24.9-6.49-18.5-5.28-36.9-11-55.6-15.9-2.69-0.354-2.68-0.802-0.326-1.36 1.87-1.15 0.648-4.71 1.47-6.78 0.928-5.82 1.82-11.7 3.42-17.4 0.213-0.431 0.565-0.767 0.898-1.1z" fill="#3c60a9"/><path d="m318 503c0.949 14.9 0.895 30 3.6 44.7 0.0396 2.89 2.23 8.27-2.43 7.82-12.8 2.48-25.6 5.16-38.4 7.26-3.25 0.404-2.14-4.3-3.13-6.35-3.2-16.6-3.95-33.6-3.61-50.5 7.77-2.01 15.9-1.91 23.8-2.67 6.72-0.372 13.5-0.415 20.2-0.334z" fill="#fdc415"/><path d="m203 312c4.61 1.1 6.09 6.12 8.67 9.49 5.62 8.62 12.6 16.3 20.1 23.2 1.81 2.41 5.59 5.49 3.14 8.59-4.5 9.36-9.66 18.4-13.6 28-1.97 4.97-7.71 0.409-11.2-0.31-11.8-5.19-23.7-10.1-35.2-16 3.41-10.7 9.35-20.3 14.3-30.3 4.19-7.77 8.75-15.4 13.7-22.7z" fill="#f25c03"/><path d="m784 543c14.2 1.41 28.1 4.62 42.1 7.08 2.19 0.663 6.19-0.0239 4.67 3.45-1.47 15.5-4.93 30.7-9.77 45.5-13.7-0.94-26.8-4.95-40.2-7.8-2.15-0.896-6.72-0.579-6.74-3.35 0.564-7.15 2.56-14 4.52-20.9 1.87-6.89 3.07-13.9 4.43-20.9 0.265-1.02 0.618-2.02 0.948-3.02z" fill="#fb7b03"/><path d="m579 289c15.8 1.66 31.9 3.61 46.3 10.7 1.78 1.46 6.06 1.96 5.49 4.7-1.46 8.55-5.31 16.4-8.15 24.6-2.22 6.01-4.59 12-6.65 18-9.88-1.93-19.3-5.48-29-8.3-3.97-1.09-7.99-1.99-12-2.7-0.362-14.4 1.3-28.7 2.78-43 0.161-1.39 0.532-2.75 1.22-3.98z" fill="#fdaf03"/><path d="m468 505c4.91 1.47-3.86 3.84-4.25 6.6-5.26 6.33-5.26 15.5-1.54 22.6 3.4 7.61 10.3 13.3 18.4 15.4 9.5 2.61 19.5 1.89 29.2 0.955 5.58-0.726 11.2-2.01 16.2-4.52 8.62-0.226 17.3 3.56 23.2 9.8 5.02 6.06 3.45 14.6 1.8 21.6-1.49 5.31-4.83 11.3-11 11.6 4.62-3.35 4.68-9.69 6.13-14.7 0.48-5.07 3.71-13.2-2.3-16-7.34-3.7-15.6-5.77-23.8-5.98-5.11-0.657-7.28 4.71-9.13 8.47-2.57 6.73-2.61 14.3-1.19 21.3-1.13 1.81-7.15-0.637-10.2-0.711-14.8-2.46-28.9-8.58-40.6-18-7.03-5.94-13.9-13.8-14.2-23.5-0.659-6.61 0.828-13.7 5.64-18.6 5.12-6.24 11.2-11.6 17.7-16.4z" fill="#fbce80"/><path d="m756 742c15.5 5.1 30.7 11.3 46 17-4.67 4.99-8.33 10.9-13.7 15.2-4.7 3.72-8.52 8.39-13 12.4-3.77 0.155-3.88 5.45-7.41 7.02-10.8 8.28-22 15.9-33.1 23.8-2.77 1.75-3.17-0.172-1.86-2.41 4.78-14.1 9.5-28.2 13.6-42.6 3.09-10.1 7.07-20 9.4-30.4z" fill="#09257f"/><path d="m382 391c6.32 2.53 9.64 8.88 14.1 13.6 7.7 9.16 15.2 18.5 22.9 27.7 1.97 3.16-0.468 6.59-2.78 8.74-4.35 4.31-8.98 8.36-12.7 13.2-2.3 3.28-5.42-1-7.9-2.05-7.78-5.35-14.8-11.7-22.7-16.9-6.08-4.29-12.2-8.59-17.9-13.3 5.36-10.5 14.6-18.2 22.6-26.7 1.46-1.45 2.93-2.9 4.39-4.34z" fill="#fdda43"/><path d="m694 420c4.11 2.87 5.29 8.04 7.58 12.2 3.85 8.43 8.32 16.6 11.1 25.5 1.31 4.4 1.22 9.03 1.22 13.6-8.63 2.97-17.4 5.56-26.2 7.82-2.99 0.686-5.86 0.213-7.42-2.66-3.23-4.21-6.58-8.32-9.78-12.6-2.99-4.67-5.14-9.87-8.72-14.2-1.78-2.7-4.66-4.7-5.76-7.8-0.429-3.82 3.81-5.69 6.63-7.19 9.07-4.92 18.2-9.81 27.2-14.7 1.31-0.788 2.8-0.612 4.15-0.0308z" fill="#fde869"/><path d="m427 362c3.98 1.94 3.97 6.91 5.48 10.5 4.54 13.9 9.32 27.7 13.5 41.6 0.826 4.36-3.58 6.68-6.64 8.62-3.45 2.4-6.96 4.7-10.5 7.04-4.38 0.151-6.75-4.13-9.11-7.13-8.05-10.1-16.9-19.6-24.6-30-1.57-2.78-6.7-5.54-4.39-8.99 2.55-3.9 7.16-5.57 10.7-8.33 6.94-4.52 13.6-9.67 21.1-13.1 1.41-0.421 2.92-0.488 4.37-0.262z" fill="#fde55f"/><path d="m669 183c-0.333 7.67-0.667 15.3-1 23-26.6 3.03-53 7.42-79 14-3.09-5.3-3.41-11.6-4.59-17.5-0.211-3.37-2.06-8.58 2.93-8.67 10.5-3.56 21.6-3.86 32.4-6.35 12.7-2.31 25.6-3.11 38.5-4.31 3.61-0.204 7.24-0.186 10.9-0.186z" fill="#07070e"/><path d="m503 128c0.442 1.86-2.17 0.665-3.25 1h-22.8c-0.333 8.33-0.667 16.7-1 25-22.1 4.38-44 9.14-65.9 14.4-3.64 0.442-10.1 4.16-10.3-1.87-1.54-5.27-3.72-10.4-4.8-15.8-1.86-5.42 4.72-4.45 8.15-5.83 16.6-4.14 33.2-8.22 49.7-12.7 16.4-3.98 33.3-5.25 50.1-4.26z" fill="#999"/><path d="m606 108c14.6 3.83 29.5 6.81 43.7 12.3 11.6 4.46 23.6 8.02 35 13.2 15.3 6.72 30.5 14.1 44.9 22.7 5.3 2.8 8.32 8.1 5.42 13.9-10.4-1.43-19.6-7.08-29.3-10.7-32-13.7-64.5-26.4-98.6-34-6.61-1.76-1.74-11.3-1.45-16.2z" fill="#09080f"/><path d="m405 465c9.2 3.52 17.3 9.29 25.9 13.9 4.69 2.69 9.4 5.37 14.1 8.06-2.18 5.73-8.09 8.54-11.8 13.1-6.67 7.18-11.6 15.8-15.2 24.9h-26c-0.25-15.6-0.566-31.8 5.16-46.7 1.89-4.82 4.49-9.39 7.84-13.3z" fill="#fde96b"/><path d="m474 96v19c-16.5 0.36-32.5 4.69-49 6.03-15.2 1.85-29.9 6.54-45 8.97-2.58-4.7-5.68-9.15-7.85-14.1-0.515-3.96 6.19-3.39 8.91-5.16 16.5-5.27 33.5-8.74 50.6-10.9 11.9-2.21 23.9-3.83 36-3.87 2.12-0.0316 4.24-0.0337 6.36-0.0114z" fill="#08070e"/><path d="m324 170c2.22 5.09 4.75 10.1 6.73 15.3 0.766 2.88 0.534 5.75-3.02 5.92-15.4 5.45-30.8 11.2-46.6 15.5-6.16 1.91-12 4.81-18 6.95-2.95 0.494-6.98 1.43-7.66-2.54-2.73-5.42-6-10.6-8.37-16.2-0.938-2.26-1.82-4.87 1.7-4.73 22.8-6.7 45.7-13.2 68.5-19.7 2.2-0.479 4.47-0.65 6.72-0.507z" fill="#07070e"/><path d="m632 658c7.89 5.41 16.4 9.86 25 14-6.92 12.8-4.58 28.5 1.63 41.1 2.9 6.75 6.92 13 10.1 19.6-0.154 3.42 0.298 4.38 3.22 5.17 2.78 1.97 1.22 5.8 5.82 3.94 16.8-1.04 33.5-7.44 45.2-19.7 4.42-4.08 6.76-9.84 11-14.1-0.86 8.24-3.83 16-6.61 23.7-3.13 9.34-5.64 18.9-8.39 28.3-1.37-4.25-7.31-1.35-10.6-3.08-17.2-3.78-33.3-11-49.3-18.1-6.79-3.35-7.25-11.6-9.39-18-5.2-18.5-9.51-37.2-16.2-55.2-0.953-2.45-1.74-4.96-1.5-7.63z" fill="#ec6310"/><path d="m779 656c13 2.18 25.3 7.03 37.8 10.9 1.84 0.564 4.2 0.816 2.97 3.38-0.643 7.35-3.18 14.3-5.61 21.2-1.99 5.74-3.57 11.6-5.17 17.5-5.98-0.407-11.8-1.92-17.5-3.83-7.52-2.36-15-4.78-22.5-7.17 0.974-10.7 4.5-20.9 6.71-31.3 0.805-3.18 1.26-6.48 2.39-9.56 0.214-0.434 0.565-0.777 0.902-1.11z" fill="#347bad"/><path d="m484 291c6.73 19.7 13.4 39.5 19.1 59.6 5.67 18 10.4 36.2 16.7 54 3.69 11.6 7.45 23.2 10.1 35-1.23 4.27-11.8 6.94-12.4-0.171-4.55-14.9-9.71-29.5-13.8-44.6-4.58-16-10.3-31.6-14.5-47.7-4.33-12.9-8.38-26-12-39.1-0.639-4.66-7.01-13.2-0.332-15.2 2.3-0.81 4.56-2.12 7.09-1.88z" fill="#fabe48"/><path d="m450 425c4.51 13 8.46 26.1 12.8 39.2 1.09 3.12 3.1 6.08 3.2 9.45-0.805 3.59-4.68 4.95-7.31 7.02-2.66 1.86-6.13 3.06-9.3 1.77-5.03-1.69-9.44-4.76-14.1-7.15-8.58-4.79-17-9.89-25.2-15.2 1.03-5.89 6.34-9.42 10.2-13.5 7.04-6.66 13.7-13.8 21.5-19.6 2.45-1.56 5.43-2.17 8.31-1.94z" fill="#fdeb6f"/><path d="m599 735c4.8 12.9 8.46 26.3 12.7 39.4 9.61 31 19.1 62 30 92.6 1.89 3.83-1.11 4.6-4.06 5.04l-7.64 1.91c-4.92-13.2-9.88-26.5-13.5-40.1-5.2-15.7-10.3-31.4-14.7-47.4-4.35-14.3-8.95-28.5-13.4-42.7-1.37-4.28-0.688-8.28 4.41-8.77 1.94-1.12 4.14-0.879 6.12-4e-3z" fill="#fbc556"/><path d="m455 702c6.13 0.699 12.1 2.22 18 4 2.17 11.6 4.94 23.8 13.3 32.6 4.32 4.77 9.8 8.37 15.8 10.6 1.45 1.19 5.25 0.636 4.91 3.03-0.21 1.14 0.719 3.36-1.24 2.85-19.1 0.911-37.9-3.84-56.3-8.49-3.99-1.1-7.91-2.53-11.5-4.58 1.12-7.35 5.04-13.8 7.89-20.6 2.98-6.5 6.04-13 9.11-19.4z" fill="#fdc00a"/><path d="m588 738c5.34 19.9 12.1 39.3 18.1 59 7.76 24.9 15.4 49.7 23.7 74.4 1.01 4.75-7.15 5.24-10.8 5.59-5.64-12.8-8.29-26.6-13.4-39.5-4.06-12.6-7.57-25.3-12.2-37.7-5.4-15-9.39-30.5-14.6-45.6-0.626-4.57-5.39-11-2.73-14.4 3.93-0.943 7.85-2.06 11.9-1.75z" fill="#e77702"/><path d="m618 660c5.13 6.49 5.18 15.5 8.04 23.1 6.16 22.6 13.2 45 20.6 67.2 5.12 19.8 11.8 39.2 17.7 58.8 5.85 17.3 12.4 35.3 10.6 53.9-2.7 4.29-2.81-1.86-3.91-4.11-3.82-12.4-8.46-24.5-11.7-37-5.41-17.5-12.3-34.6-16.7-52.5-5.94-17.4-12.1-34.8-16.9-52.6-3.61-12.2-8.43-24-11.6-36.3-0.203-7 3.57-13.5 3.78-20.5z" fill="#7e230c"/><path d="m579 199c1.89 7.4 4.52 14.8 4.02 22.6-1.68 1.82-5.01 2.55-7.28 4.03-15.9 8.12-30.7 18.9-42.1 32.7-0.746 1.66-3.56 2.74-4.42 0.644-2.89-4.21-5.31-8.72-8.22-12.9 0.0255-5.8 4.89-9.69 8.27-13.8 5.41-6.14 10.6-12.5 16.7-18 7.18-6.37 15-12.7 24.5-15.2 2.79-0.673 5.76-0.859 8.54-0.0418z" fill="#06060d"/><path d="m762 651c5.77 0.834 11.4 2.38 17 4-2.53 14.3-5.43 28.6-9.85 42.5-3.73 13.6-6.94 27.4-12.2 40.5-5.5-1.04-10.9-2.6-16-5 0.803-12 5.67-23.1 8.75-34.6 4.56-15.7 8.57-31.5 12.3-47.4z" fill="#07070f"/><path d="m382 140c3.33 0.456 4.6 3.82 5.71 6.54 2.33 5.27 4.72 10.7 5.29 16.5-6.48 5.64-14.4 9.08-21.4 14-7.02 4.14-15.2 5.26-22.8 7.98-4.85 1.57-9.71 3.16-14.7 4.03-2.22-5.74-4.66-11.4-6.73-17.2-0.759-2.38-0.434-4.64 2.49-4.56 6.54-1.82 13.1-3.67 19.7-5.35 6.44-2.49 11.3-7.56 17-11.4 5.08-3.69 10.4-6.98 15.6-10.5z" fill="#07060d"/><path d="m455 603c4.92 2.63 9.97 5.1 15.5 6.25 9.11 2.07 18.4 3.21 27.6 5.03 8.89 1.88 17.9 3.22 27 3.28 4.06 0.476 8.44-0.504 12.3 1.11 1.2 0.163-0.283-3.93 0.994-5.46 1.26-3.93 3.78-7.32 6.67-10.2 3.19-0.434 6.42-0.295 6.42 3.8 1.39 6.25-0.717 12.9 1.91 19 0.562 2.45 3.03 4.28 2.67 6.89-2.01 0.814-5.43 0.226-7.97 0.45-22 0.1-43.9-2.51-65.5-6.62-10.1-2.09-20.4-6.87-25.8-16-1.37-2.24-1.8-4.89-1.75-7.48z" fill="#ef6c15"/><path d="m349 350c5.89 2.51 8.92 8.53 12.8 13.2 5.18 6.77 10.7 13.3 16.2 19.8-2.06 5.6-7.43 8.81-11.5 12.8-2.25 1.97-4.41 4.04-6.51 6.17-7.44-2.61-13.5-7.91-20-12.1-5.69-3.92-11.4-7.88-17-11.9 2.65-5.79 7.95-9.61 12.2-14.2l13.8-13.8z" fill="#fdb605"/><path d="m478 95c24.7-0.345 49.5 0.418 74 4-0.496 6.07-1.56 12.1-3 18-22.8 0.254-45.6-0.924-68.5-1.84-3.74 0.107-2.44-4.28-2.64-6.7 0.0332-4.49 0.0477-8.98 0.0913-13.5z" fill="#08070e"/><path d="m638 307c7.31 1.29 13.7 5.27 20.2 8.63 3.66 2.01 7.25 4.13 10.8 6.37-0.756 6.57-5.19 11.8-8.41 17.3-4.72 7.66-9.54 15.2-14.6 22.7-7.7-2.89-14.7-7.25-22-11 0.695-9.74 4.8-18.7 8.03-27.8 1.98-5.41 3.96-10.8 5.97-16.2z" fill="#fdb506"/><path d="m341 326c2.2 5.01 4.79 9.88 6.7 15 0.713 3.04-0.993 5.93-3.26 7.82-5.24 5.48-11.1 10.3-16.7 15.5-2.83 3.09-5.03 7.34-9.34 8.54-3.27 0.256-5.53-2.58-7.97-4.29-5.86-4.8-11.9-9.42-18.3-13.5-2.49-1.57-2.51-5.37 0.819-5.59 14.5-7.46 29-15 43.4-22.7 1.42-0.604 2.99-0.795 4.52-0.698z" fill="#fd8704"/><path d="m570 404c19.5 2.7 37.6 11.5 54.4 21.4 4.59 2.74 9.11 5.62 13.6 8.59-0.733 4.23-3.46 7.68-6 11-11.3-1.86-22.3-4.57-33.4-7.21-4.77-1.04-9.7-0.886-14.5-1.9-2.59-0.695-5.23-2.18-6.16-4.85-4.2-8.41-7.77-17.5-7.96-27z" fill="#feea6d"/><path d="m535 287c9.56 9e-3 19.1-0.166 28.7-0.059 2.79 0.145 5.57 0.527 8.31 1.06 0.285 6.27-0.414 12.5-1.39 18.7-0.929 6.6-1.06 13.3-1.59 19.9-0.246 2.47-0.601 4.94-1.01 7.39-6.67-0.333-13.3-0.667-20-1-2.44-7.73-5.09-15.4-6.81-23.3-1.43-5.92-3.59-11.6-5.44-17.4-0.487-1.71-0.756-3.48-0.747-5.25z" fill="#fdaf04"/><path d="m558 650c5.05 4.88 5.36 12.2 7.35 18.6 0.669 3.43 4.12 5.47 5.65 8.03 0.492 2.89-4.15 1.97-5.93 2.89-12.3 2.03-24.9 0.333-37.3 0.734-10-0.124-20.1 0.493-30.1-0.821-5.73-0.623-10.2-4.52-14.1-8.44-3.08-2.83-5.81-6.57-5.59-11 5.37 0.339 10.6 1.79 15.6 3.79 7.2 2.08 14.8 1.07 22.2 1.3 11.8-0.0368 23.5-0.0447 35.3-0.0895 0.855-4.43 1.3-9.29 4.74-12.6 0.726-0.821 1.49-1.6 2.26-2.39z" fill="#f68325"/><path d="m610 722c3.59 0.182 4.22 3.7 5.07 6.58 9.5 30.6 19.3 61.1 28.6 91.8 3.97 14.4 8.63 28.5 13.3 42.7 0.63 3.47-7.44 3.72-9.14 3.27-4.52-15.2-9.05-30.5-14.4-45.4-3.96-15.2-9.2-29.9-13.8-44.9-3.5-12.6-8.23-24.9-11.4-37.6-1.43-4.73-3.39-10.2 0.0798-14.6l1.78-1.78z" fill="#b3512f"/><path d="m720 216c-2.42 8.54-7.95 15.7-12.3 23.2-2.34 3.85-4.78 7.66-6.69 11.8-8.81-2.57-16.3-8.1-24.7-11.7-7.27-3.37-14.8-6.16-22.3-9-2.36-1.05-4.06-5.05-2.27-6.92 4.11-2.07 8.89-1.02 13.3-1.82 7.66-0.841 15.1-2.92 22.8-3.56 10.7-1.26 21.4-2.36 32.1-2.03z" fill="#fc6a07"/><path d="m393 532h23c0.2 8.01 0.882 16.1 3.3 23.8 2.19 7.31 5.85 14.2 10.7 20 1.82 2.37 0.87 5.64-0.839 7.79-3.31 4.45-8.58 6.7-13.1 9.71-2.35 1.54-4.09-2.79-5.79-4.19-7.14-9.54-10.5-21.2-13.3-32.7-1.63-7.24-3.03-14.6-4.07-21.9v-2.56z" fill="#fedd45"/><path d="m614 521c7 0.387 7.48 9.62 10.8 14.4 9.14 19.1 17.3 38.7 26.5 57.9 7.18 14.2 15.8 27.9 26.8 39.5 7.03 5.57 15 9.89 22.7 14.5 7.22 4.32 15.9 6.11 22.6 11.1 1.5 2.9 3.52 11.5-2.22 7.34-13.5-6.34-25.6-15.3-37.4-24.4-10.1-8.47-20.7-16.5-29.6-26.2-17-19.4-25.1-44.4-33.4-68.4-2.54-8.49-5.41-17-6.69-25.8z" fill="#fdfaf2"/><path d="m785 626c21.3 3.15 41.7 9.93 62.7 14.5 6.92 1.75 14 3.13 20.7 5.38 2.37 0.869 3 2.61 1.26 4.34-0.941 1.05-1.21 3.71-3.13 2.43-12.9-2.97-25.7-6.23-38.7-8.79-3.98 0.073-6.98-2.31-10.8-2.37-2.46-0.134-6.03-1.65-5.43 2.2-0.87 5.27-2.19 10.5-4.58 15.3-10.3-0.739-20.1-4.12-30-7 1.2-0.648 3.55-0.385 3.12-2.33 0.647-7.45 2.1-14.8 3.78-22.1 0.188-0.635 0.632-1.14 1.1-1.59z" fill="#264998"/><path d="m580 688c-2.57 2.92-6.6 3.29-9.89 4.92-2.33 1.88-2.44 4.99-2.28 7.76-0.0605 2.19 0.394 5.82-0.0545 7.09-0.668-0.881-2.1-1.45-1.77-2.74-0.113-0.887 0.489-2.49-0.97-2.03-0.887-0.113-2.49 0.489-2.03-0.97-0.11-0.859 0.475-2.61-0.941-1.8-1.02 0.255-2.04 0.51-3.06 0.765v10c-12.4 1.69-24.9 1.11-37.3 1.36-4.67-0.428-9.54-1.92-12.9-5.34-2.53-2.75-3.36-6.43-3.81-10-0.73-0.564-2.33-0.588-2-1.81v-3.19c13.4-0.248 26.8-0.163 40.1-0.795 7.92-0.36 15.8-1.55 23.5-2.92 4.41-0.547 8.87-0.521 13.3-0.286z" fill="#fede9b"/><path d="m439 639c3.46 0.617 6.65 2.39 9 5 0.891 4.04 0.271 8.19 0.825 12.3 1.13 13.3 5.78 26.7 15.4 36.2 1.24 1.24 4.06 2.92 0.837 3.06-3.98 0.777-7.58-1.59-11.2-2.84-11.5-4.62-22.9-9.65-33.7-15.7-2.59-1.62-2.52-5.07-1.07-7.44 6.31-10.4 12.7-20.7 19.9-30.6z" fill="#fed638"/><path d="m464 285c1.99 4.07 1.32 8.84 0 13h-4c5.19 14.6 8.92 29.6 14 44.1 2.34 7.33 5.32 14.5 6.88 22.1 0.0767 2.93 1.6 8.12-3.06 7.16-2.99 0.232-6.81 1.87-7.25-2.4-2.04-2.34-0.633-6.66-2.49-8.25-3.44-0.387-3.29-4.66-4.56-7.18-3.99-12.3-8.1-24.5-11.4-37-2.26-6.34-5.68-12.5-5.58-19.4-0.482-3.85 1.2-7.53 4.69-9.38 3.76-2.39 8.39-3.05 12.8-2.74z" fill="#490d04"/><path d="m368 118c2.62 4.52 4.75 9.29 7 14-5.85 6.31-13.6 10.3-20.4 15.4-3.28 2.42-6.63 4.77-9.56 7.61-6.97 1.47-14 3.35-21.2 3.02-2.35-0.782-2.68-4.72-4.08-6.79-1.91-4.29-3.28-8.79-4.76-13.2 8.62 0.836 17.7-0.107 25.3-4.65 6.35-3.5 11.3-8.92 17.6-12.5 2.36-1.24 4.48-3.2 7.18-3.6 1.01 0.041 1.96 0.462 2.91 0.752z" fill="#0d0c13"/><path d="m674 183c13.1-0.0959 26.3-0.536 39.4-0.0936 5.16 0.136 10.3 1.14 15.1 2.93 1.01 0.993-0.396 3.42-0.37 4.98-0.708 4.58-2.49 8.89-4.13 13.2-17 0.483-34 1.14-51 1-0.199-7.35 0.26-14.7 1-22z" fill="#06060d"/><path d="m559 531c4.29 1.78 8.2 4.45 12.8 5.48 2.82 0.756 5.71 1.23 8.6 1.58 2.99 6.86 5.18 14 7.1 21.3 1.84 6.38 4.4 12.5 6.57 18.8 0.179 1.28 1.22 5.11-1.08 3.35-8.45-3.39-17.5-5.03-26.6-5.4-0.762-8.78-1.14-18.2-6.32-25.7-3.05-4.67-7.95-7.57-12.7-10.3 1.66-4.89 6.35-8.9 11.6-9.06z" fill="#88230c"/><path d="m829 671c8.4 1.45 16.6 3.86 24.7 6.38 1.47 0.723 5.57-0.293 3.5 2.17-6.52 13-13.7 25.8-22.1 37.7-0.34 0.346-1.05 1.9-1.15 1.47 0.295-1.47-0.265-2.24-1.91-2.13-5.46-1.16-10.8-2.75-16.1-4.61 1.21-8.82 4.88-17 7.48-25.5 1.69-4.81 3.01-9.77 4.99-14.5 0.172-0.357 0.35-0.712 0.527-1.07z" fill="#115a97"/><path d="m768 701c8.51 1.7 17 3.92 24.8 7.88 0.481 1.29-0.232 3.18-0.42 4.68-1.34 6.1-4.5 11.6-6.4 17.5-1.76 4.94-3.33 9.95-4.94 14.9-8.68-0.871-16.8-4.29-25-7 4.1-11.5 7.54-23.2 10.5-35 0.29-1.08 0.629-2.21 1.53-2.95z" fill="#1f4a8f"/><path d="m492 275c7.54 4.01 7.48 13.5 10.2 20.5 6.7 19.8 12.5 39.8 18.5 59.8 5.49 19 12.1 37.7 17.5 56.7 2.19 8.49 6.42 16.5 6.94 25.4-1.29 4.16-6.45-0.0761-6.01-3.87-4.03-11.4-7-23.1-11.2-34.5-6.3-23.1-14.7-45.6-21.2-68.6-4.63-15.1-9.2-30.3-14.6-45.1-2.03-6.44-9.47-5.07-14.8-4.82-7.86 0.528-14.9 4.5-22.5 6.03-8.44-0.112 4.11-4.17 6.73-5.87 9.42-4.13 20-8.25 30.4-5.73z" fill="#a94b2e"/><path d="m547 499c2.07-0.602 2.51 0.92 2.72 2.73 0.716 3.84 2.79 7.72 1.75 11.7-2.35 4.8-6.65 8.33-10.7 11.7-12.5 9.54-28.1 14.8-43.8 15.2-6.85 0.031-13.9-1.75-19.5-5.68-2.46-2.59-6.99-5.33-6.19-9.35 0.395-4.52 3.81 1.18 6.37 1.12 4.3 1.45 8.91 0.934 13.3 0.676-0.0844 2.23 3.87 0.6 5.44 1.17 7.01 0.184 14.1-1.15 20.3-4.51 11.4-4.88 21.8-12.6 28.8-22.9 0.476-0.587 0.952-1.17 1.43-1.76z" fill="#f5922f"/><path d="m733 708c1.73 4.59-1.01 9.1-2.19 13.5-3.29 9.91-6.11 20-10.1 29.7-1.18 2.11-1.49 5.78-3.33 6.79-3.77-0.267-7.57-0.508-11.2-1.46-12.4-2.93-24.2-7.91-36.2-12.4-0.189-2.26 3.77-0.734 5.21-1.54 14.2-1.57 28.8-5.26 40.4-14 5.35-3.93 10.1-8.67 13.7-14.3 1.36-1.99 2.61-4.05 3.68-6.2z" fill="#e65008"/><path d="m673 155c4.38 0.582 8.78 1.18 13 2.69 8.72 2.75 17.5 5.3 26.3 7.89 7.32 2.26 14.6 4.8 21.8 7.42-0.735 2.58-0.79 6.23-2.45 8.02-8.03 0.416-15.9-1.6-23.8-2.12-11.6-0.896-23.1-1.28-34.7-1.9v-22z" fill="#7f8080"/><path d="m554 99c14.3 0.871 28.4 3.84 42.5 6.29 1.9 0.318 3.81 0.72 5.49 1.71-0.684 5.39-1.78 10.7-3 16-13.7-1.11-27.4-2.39-41.1-3.75-1.26-0.286-3.66-0.352-3.93-1.78v-18.5z" fill="#0b0a11"/><path d="m556 497c8.02 3.2 16.1 6.53 24.6 7.93 8.41 1.66 17 1.54 25.5 1.82 5 0.23 10 0.819 14.8 2.24 1.01 1.4 1.21 2.49-0.84 2.63-6.59 2.17-12.9 5.04-19.2 8.02-4.04 1.87-8.43 3.84-13 2.84-5.71-0.767-11.3-1.98-16.8-3.73-3.23-0.946-6.5-2.02-9.41-3.75-3-2.58-3.53-6.78-4.47-10.4-0.539-2.51-0.938-5.06-1.29-7.6z" fill="#f69939"/><path d="m687 644c11.3 7.28 22.8 14.4 34.4 21.1 2.02 1.14 3.32 3.08 4.23 5.16 0.961 1.12-1.04 0.826-1.71 1.16-2.31 0.514-4.62 1.03-6.94 1.54-0.202-0.694 0.555-2.4-0.72-1.96-7.26 0.701-14.1-2.22-20.9-4.24-8.45-2.73-16.9-5.86-24.3-10.8 0.66-2.57 2.72-4.48 5.13-5.44 3.56-1.7 7.22-3.33 10.2-6l0.337-0.271z" fill="#f7b55c"/><path d="m611 708c3.78 1.85 3.51 6.81 4.97 10.3 5.58 18 12 35.7 16.8 54 2.74 10 7.37 19.4 10 29.5 3.86 12.4 7.43 25 11.7 37.2 0.35 3.07 1.4 8.28-2.05 9.73-2.34-2.86-3.49-8.5-5.11-12.5-4.4-14.4-8.19-28.9-13.2-43.1-5.86-16.6-9.8-33.9-15.6-50.5-2.14-6.58-4.28-13.2-6.48-19.7-2.33 0.667-4.67 1.33-7 2 2.77-5.34 5.3-11 6-17z" fill="#82240e"/><path d="m395 169c-8e-3 10.4 0.172 20.9 0.0282 31.3-0.107 5.25-0.384 10.5-1.03 15.7h-2c-2.94-3.51-5.24-7.5-7.89-11.2-4.72-7.04-9.09-14.3-13.1-21.8 4.49-5.29 11.1-7.95 16.9-11.4 2.24-1.11 4.42-2.85 7.06-2.63z" fill="#6c6d6c"/><path d="m816 717c5.33 1.67 10.7 3.33 16 5-6.26 9.73-13.6 18.7-21 27.5-1.91 2.22-3.89 4.38-5.97 6.46-5-1.67-10-3.33-15-5 1.82-1.9 3.81-3.64 5.5-5.65 4.21-5.62 8.21-11.4 12.5-17 2.74-3.74 5.38-7.55 8.02-11.4z" fill="#3b60a5"/><path d="m561 601c7.36-0.0323 14.7-0.112 22.1-0.0904 1.14-0.0353 2.9 0.226 2.95 1.64 0.191 4.74 0.0571 9.49 0.0973 14.2-0.0775 1.94 0.239 3.95-0.453 5.81-0.241 1.44-1.44 1.68-2.71 1.74-7.28 1.04-14.6 0.791-22 0.673-2.11-3.09-2.36-6.96-2.27-10.6 0.0349-3.83-0.291-7.85 1.3-11.4 0.283-0.675 0.61-1.33 0.966-1.97z" fill="#f7d995"/><path d="m460 582c6.2 0.759 11.5 4.3 17.5 5.97 15.8 5.11 32.5 6.51 48.8 9.21 2.96 0.552 6.05 0.665 8.92 1.59 1.59 1.04 3.17 2.84 2.83 4.88 0.502 2.92-4.26 0.764-5.96 1.51-20.8 0.224-42.1-1.72-61.4-10.1-3.44-1.6-6.97-3.19-10-5.43-2.19-1.67-2.55-5.69-0.648-7.65z" fill="#fcf9f0"/><path d="m716 478c1.48 11 1.14 22.1 1.24 33.2-0.137 2.42-0.934 4.76-2.24 6.79-5.03-5.46-9.74-11.2-14.3-17.1-3.49-4.38-7.33-8.47-10.9-12.8-1.17-1.35-1.42-3.76 0.915-3.67 6.67-2.03 13.3-4.31 20-5.97 1.7-0.399 3.44-0.499 5.18-0.469z" fill="#fde259"/><path d="m520 557c8.21 0.358 16.2 2.57 24 5-0.867 5.76-1.65 11.5-2.59 17.3-0.3 1.79-1.45 3.23-2.41 4.71-6.4 0.918-12.9-0.775-18.7-3.53-1.49-0.727-2.94-1.55-4.32-2.47-1.08-5.79-0.314-11.9 2.1-17.2 0.563-1.29 1.2-2.54 1.9-3.77z" fill="#fbdb9d"/><path d="m591 688c2.35 2.08 3.69 5.08 4.04 8.16 0.373 2.84 0.2 5.73 0.382 8.59-0.139 1.52-0.277 3.26-1.52 4.34-0.922 1.13-2.4 1.52-3.68 2.13-5.74 2.34-12.1 2.83-18.2 1.78-2.7-2.7-4.47-6.26-4.98-10-0.609-3.11-0.32-6.4 1.02-9.28 0.509-1.09 1.82-1.54 2.77-2.21 6.07-3.41 13.4-4.27 20.2-3.46z" fill="#171411"/><path d="m283 212c-1.1 7.39-8.27 12.2-8.94 19.8-0.294 2.46-0.109 4.94 0.722 7.28 1.89 6.47 4.53 12.7 5.91 19.4 0.471 2.5 0.611 5.08 0.314 7.61-1.18 1.38-2.72 2.9-4.62 3h-3.38c-3.06-16-7.31-31.7-13.5-46.8-0.828-1.77-0.805-3.86 1.54-3.99 5.06-1.89 10.1-3.91 15.2-5.71 2.23-0.575 4.55-0.624 6.84-0.516z" fill="#09090e"/><path d="m563 588c5.87 0.151 11.9-0.37 17.6 0.957 3.67 1.01 6.58 3.68 9.37 6.11 3.35 3.9 5.4 8.9 5.3 14.1 0.124 5.95-0.1 12.4-3.81 17.4-0.519 1.36-4.34 2.16-4.38 1.46 2.79-4.2 1.86-9.44 2.02-14.2-0.0869-4.05 0.222-8.12-0.191-12.1-0.763-3.19-3.88-4.13-6.79-4.3-5.6-0.624-11.3-0.294-16.9-0.717-2.96-0.317-5.69 0.989-8.25 2.29-2.11 2.93-3.57 6.26-5.15 9.49-0.624-0.734-1.55-1.34-2-2.15v-2.85c-3.75 1.69-7.91 2.28-12 2-0.692-2.02-0.945-4.7-2.42-6.14-0.859-0.286-1.72-0.573-2.58-0.859 7.52-0.358 13.8-4.75 20.4-7.88 3.05-1.42 6.33-2.46 9.72-2.5z" fill="#f5d695"/><path d="m594 646c2.13 4.29 2.49 9.15 2.68 13.9 0.122 2.05 0.226 4.1 0.32 6.14-2.72 1.84-5.74 3.45-9.08 3.67-4.63 0.441-9.28 0.381-13.9 0.325-2.2-4.07-3.86-8.52-4.05-13.2-0.0588-2.43-0.2-4.88 0.0736-7.29 0.17-1.3 1.44-1.78 2.59-1.84 7.04-1.35 14.2-1.98 21.4-1.68z" fill="#f8da9b"/><path d="m679 781h6c1.25 1.58 3.14 2.51 5.15 2.49 6.02 0.773 11.9 2.17 17.8 3.51-2.93 11.3-6.4 22.7-12 33-4.74-5.85-7.03-13.2-10.2-19.9-2.78-6.17-5.43-12.5-6.76-19.1z" fill="#dc3a08"/><path d="m479 639c22 5.01 44.7 4.91 67.1 5.59 2.12 0.43 5.12 2.11 4.76 4.53-0.145 2.41-1.81 4.69-4.45 3.97-13.4 0.153-26.9 0.148-40.4-0.128-7.51-0.268-15.5-0.461-22-4.73-1.73-1.63-5.56-2.15-5.11-5.08-0.0907-1.38 0.0136-2.77 0.107-4.15z" fill="#fcf8ed"/><path d="m372 183c2.15 3.08 3.68 6.52 5.42 9.84 0.219 1.12 2.09 2.7 1.09 3.48-8.38 5.25-16.6 10.8-24.5 16.7-2.92-5.48-4.78-11.4-7.03-17.2-0.668-1.52-0.983-3.28-1.06-4.85-0.639-0.319-1.28-0.639-1.92-0.958 7.38-2.17 14.9-4.08 22-6.95 1.58-0.625 3.35-1.1 4.98-0.374 0.334 0.106 0.665 0.217 0.997 0.328z" fill="#787979"/><path d="m756 742c2 0.667 4 1.33 6 2-0.373 9.85-3.78 19.2-6.87 28.4-3.41 10.5-6.56 21-9.55 31.6-0.87 3.25-0.893 7.3-4.16 9.21-2.6 1.53-4.89 3.72-7.79 4.68-3.31 0.733 0.241-3.79 0.243-5.57 4.44-13 8.74-26.1 12.5-39.3 3.12-10.4 7.22-20.4 9.59-31z" fill="#0b2682"/><path d="m823 692c7.79 2.3 15.5 4.82 23 8-3.69 6.32-7.38 12.6-11 19-0.333-0.667-0.667-1.33-1-2-2.45-0.865-5.08-1.01-7.57-1.75-3.53-0.893-7-2.03-10.4-3.25 0.775-6.23 3.13-12.1 5.53-17.9 0.323-0.821 0.813-1.55 1.47-2.14z" fill="#0c266d"/><path d="m498 498c3.09 0.841 5.91 2.57 8.06 4.94 0.677 1.5 1.04 3.11 0.992 4.76-0.46 1.18-1.64 2.11-2.46 3.13-5.07 5.33-11.3 9.81-18.3 12.1-1.21 0.346-2.48 0.943-3.69 0.292-3.25-1.03-5.98-3.17-8.56-5.32 0.265-2.37 1.37-4.65 3.27-6.14 3.9-3.2 7.9-6.26 11.9-9.4 1.89-1.32 3.49-3.07 5.56-4.13 1.03-0.422 2.18-0.248 3.26-0.263z" fill="#f9f5eb"/><path d="m260 298c4.87 1.51 10 1.37 15.1 1.82 1.04 0.317 3.6-0.535 2.7 1.26-1.87 8.74-3.47 17.6-5.86 26.2-1.12 4.16-3.06 8.06-5.5 11.6-0.72 0.669-0.993 2.66-2.22 1.88-0.735-0.245-1.47-0.49-2.2-0.735-0.28-10.4-0.496-20.8-0.824-31.2-0.191-3.63-0.595-7.26-1.18-10.8z" fill="#fae2b8"/><path d="m811 645c8.79 2.24 17.4 5.07 26 8-1 4.33-2 8.67-3 13-9.93-0.324-19.6-2.95-29-6 0.667-0.333 1.33-0.667 2-1 0.574-2.42 0.825-4.92 1.72-7.26 0.732-2.26 1.5-4.5 2.28-6.74z" fill="#2d539f"/><path d="m762 745c2.73 0.414 5.96 0.362 7.8 2.8-0.51 2.7-2.33 5.74-3.14 8.65-2.83 8.27-4.95 16.8-7.77 25-2.6 7.87-5.17 15.8-7.96 23.6-1.27 2.78-4.26 3.92-6.92 4.95 0.915-10.7 5.03-20.7 8.04-30.9 2.93-9.46 5.96-18.9 8.75-28.4 0.473-1.87 0.868-3.77 1.22-5.67z" fill="#25459e"/><path d="m456 521c0.693 0.199 2.12-0.495 2.11 0.555 1.75 9.67 6.38 19.4 14.8 24.9 3.79 2.37 8.29 3.31 12.6 4.08 4.79 0.768 9.64 1.02 14.5 1.41-0.0924 1.89 2.21 4.94-0.293 5.7-5.26 2.56-11.4 2.37-17 1.21-11.1-3.5-21.3-10.7-27-20.9-2.04-3.46-2.25-7.68-2.08-11.6 0.222-1.52-0.114-3.4 1.34-4.36l1.05-1.05z" fill="#f9f6ef"/><path d="m785 753c5.71 1.89 11.4 3.85 17 6-2.86 3.28-5.69 6.57-8.33 10-3.61 4.12-8.14 7.28-11.9 11.2-2.59 2.6-5.08 5.3-7.78 7.78-0.533 0.892-1.35 1.09-2.3 0.958-1.34 0.31-0.179-1.51-0.247-2.21 1.36-5.85 4.12-11.2 6.36-16.8 2.42-5.67 4.8-11.3 7.22-17z" fill="#284b9d"/><path d="m785 626c9.04 1.49 18 3.68 26.9 5.76 1.45 0.532 4.3 0.672 4.93 1.44-0.764 0.886-1.89 1.53-2.19 2.73-1.02 1.35-0.736 4.89-3.08 3.81-7.31-1.35-14.5-3.45-21.5-5.74 0.531 6.07-0.383 12.2-2.58 17.9-0.0199 1.28-0.942 1.12-1.86 0.963-2.85-0.285-5.71-0.571-8.56-0.856 1-0.333 2-0.667 3-1 0.546-7.68 2.09-15.2 3.7-22.8 0.178-0.879 0.618-1.66 1.3-2.25z" fill="#0a2d7d"/><path d="m579 199c1.02 3.94 2.14 7.85 3.08 11.8 0.805 3.67 1.09 7.44 0.921 11.2-2.31 1.11-4.61 2.24-6.95 3.29-1.16 0.496-2.46 0.66-3.65 0.168-1.75-0.0431-1.98-1.85-2.65-3.11-2.52-5.9-4.73-11.9-6.42-18.1-0.516-0.944-0.235-1.54 0.792-1.8 2.42-1.18 4.82-2.42 7.27-3.53 2.07-0.777 4.37-0.899 6.48-0.224 0.374 0.1 0.746 0.21 1.12 0.324z" fill="#08070e"/><path d="m764 712c2.67 0.333 5.33 0.667 8 1-0.333 1.67-0.667 3.33-1 5 1.33 0.333 2.67 0.667 4 1-0.299 6.31-1.18 12.7-3.48 18.6-0.617 1.77-1.09 3.59-1.52 5.42-3.19-0.851-6.42-1.59-9.57-2.56-1.64-0.481-3.02-1.52-4.43-2.44 3.08-8.53 6.38-17 8-26z" fill="#1c4f92"/><path d="m506 693c17.3-0.15 34.7 0.24 52 1v5c-17.1 3.29-34.8 2.77-52 0v-6z" fill="#fef9ec"/><path d="m568 773c2.83 0.385 1.85 3.12 2 5.16 0.191 1.61 3.52 0.243 2.68 3.54 5.4 20.9 13.4 40.9 19.4 61.6 4.15 12.4 8.13 24.8 13.1 36.8 2.78 6.51 8.75 11.7 15.9 12.5 2.65 1.23 8.9 0.138 9.56 2.12-1.86 3.08-7.32 0.776-10.5 1.82-4.98 0.641-9.89-1.11-13.4-4.68-6.52-6.51-7.86-15.9-10.3-24.4-4.39-12.9-8.43-25.8-12.1-38.9-5.09-17-11-33.8-16.2-50.8-0.301-1.58-0.183-3.2-0.211-4.79z" fill="#bb5e41"/><path d="m402 196c11.4 9.19 20 21.2 30.2 31.7 7.52 7.84 14.4 16.3 21.8 24.2 1.06 1.54 4.83 3.32 4.48 4.27-2.68 0.617-6.2 1.87-8.3-0.554-3.84-3.66-7.05-7.93-10.6-11.9-7.37-8.56-15-16.9-22.4-25.4-4.55-5.09-9.89-9.45-14.1-14.8-1.48-2.17-1.65-5-1.06-7.49z" fill="#ababaa"/><path d="m216 177c4.53 0.192 8.65 2.36 12.3 4.94 5.12 3.6 10.4 7.31 16.6 8.79 1.81 0.0283 1.94 2.26 2.08 3.66 0.0575 1.36-1.38 2.31-2.06 3.43-2.14 2.62-4.86 4.85-7.97 6.18h-2.92c-0.333 0.667-0.667 1.33-1 2-4.14-9.34-9.56-18.1-15.7-26.2-0.558-0.854-1.42-1.68-1.3-2.79z" fill="#f9dcb3"/><path d="m558 650c3.52 3.45 4.92 8.36 5.93 13 0.76 3.63 1.59 7.5 4.21 10.3 0.851 1.01 1.96 1.84 2.86 2.73v1.93c-4.05 1.45-8.42 1-12.6 1.04-0.916-0.218-2.37 0.481-2.72-0.678-2.67-4.79-4.22-10.2-4.04-15.8 0.06-1.59 0.132-3.21 0.46-4.76 1.26-3.09 3.6-5.54 5.94-7.85z" fill="#ee6a13"/><path d="m574 740c3.79 3.98 4.4 9.66 6.08 14.7 2.3 8.17 5.3 16.1 7.61 24.3 1.26 3.94 2.39 8 2.31 12.2-2.27-0.59-4.13-2.25-5.04-4.4-3.3-6.45-6.34-13.1-8.35-20.1-1.74-6.45-4.22-12.7-6.42-19-0.799-2.44-1.21-5-1.19-7.57 1.65-0.629 3.38-1.2 5-0.13z" fill="#3b0e04"/><path d="m506 557c2.06 4.91 3.06 10.2 3.06 15.5 6e-3 3.12-0.269 6.31 0.621 9.35 0.208 0.663 0.565 1.41-0.462 1-8.17-1.09-16.2-3.11-24.2-4.9-0.0721-0.683-0.0592-1.28 0.837-1.02 3.19-0.0126 6.49-0.352 9.53 0.815 1.27 0.622 0.0188-1.47 0.0635-2.16-1.08-4.1 0.276-8.4 2.32-12 1.29-2.2 2.54-4.53 4.58-6.13 1.08-0.689 2.45-0.488 3.67-0.534z" fill="#eb6916"/><path d="m590 692c0.342 3.38 0.673 6.76 0.98 10.1-0.189 1.02 0.416 2.38-0.313 3.17-2.54 2.36-6.05 3.19-9.39 3.65-1.24 0.154-2.48 0.367-3.72 0.447-1.21-0.184-2.57-0.356-3.4-1.37-0.821-0.672-1.28-1.59-1.54-2.6-1.02-3.05-1.37-6.26-1.63-9.45 5.33-2.38 11.1-3.9 16.9-4 0.69-0.0171 1.38-0.018 2.07-4e-3z" fill="#f6d9a1"/><path d="m477 129h26c-4.65 4.7-9.89 8.77-15.3 12.6-2.17 1.55-4.3 3.18-6.53 4.66-0.922 0.699-2.09 0.8-3.2 0.744-0.779-5.97-1.01-12-1-18z" fill="#040409"/><path d="m516 566c0.892 1.08 1.74 2.22 2.95 2.97 2.85 2.11 6.48 2.41 9.83 3.11 4.37 0.852 8.79 1.46 13.2 1.92-0.331 2.38-0.362 4.84-1.26 7.1-0.46 1.04-1.12 1.96-1.74 2.9-6.02 0.874-12.2-0.599-17.6-3.05-1.86-0.842-3.65-1.82-5.35-2.95-0.46-3.19-0.126-6.41-0.103-9.61 0.0368-0.797 0.0659-1.6 0.103-2.39z" fill="#f5b056"/><path d="m580 688c-2.57 2.92-6.6 3.28-9.89 4.92-2.33 1.88-2.44 4.99-2.28 7.76-0.184 1.96 0.619 6.43-0.164 6.98-0.65-0.833-1.98-1.38-1.66-2.62-0.118-0.882 0.489-2.49-0.955-2.04-0.882-0.118-2.49 0.489-2.04-0.955-0.114-0.854 0.475-2.61-0.927-1.81-1.02 0.256-2.05 0.512-3.07 0.768v-7c-17.7 0.15-35.3-0.128-53-1-0.333 1.33-0.667 2.67-1 4-0.639-0.563-2.24-0.528-2-1.64v-3.36c13.4-0.248 26.8-0.163 40.1-0.795 7.92-0.36 15.8-1.55 23.5-2.92 4.41-0.547 8.87-0.521 13.3-0.286z" fill="#f8d18a"/><path d="m779 656c2.33 0.667 4.67 1.33 7 2-1.3 8.33-2.87 16.7-5.87 24.6-0.745 2.07-0.766 4.5-2.42 6.14-1.25 1.3-3.12 1.59-4.71 2.28-1.22 1.88-2.26 3.88-3 6-0.856-2.25-1.01-4.79-0.0703-7.05 3.23-8.66 4.61-17.8 6.67-26.8 0.519-2.09 0.7-4.3 1.61-6.26 0.219-0.332 0.512-0.603 0.789-0.885z" fill="#125b8a"/><path d="m831 672c7.01 0.425 13.8 2.48 20.4 4.75 2.14 0.699 4.39 0.932 6.61 1.25l-6 12c-1.72-0.553-3.48-1.19-5.02-2.06-0.326-0.978-0.652-1.96-0.978-2.94-1.6-0.814-3.35-1.26-5.09-1.66-2.58-0.786-5.23-1.33-7.79-2.2-1.13-0.518-2.44-1.01-2.65-2.4-0.682-1.52-1.11-3.12-1.47-4.74l2-2z" fill="#05326e"/><path d="m796 641c5.13 0.795 10 2.51 15 4-0.968 4.76-1.98 9.56-4 14-2.29-0.218-4.59-0.378-6.87-0.66-2.79-0.484-5.48-1.39-8.13-2.34 0.806-3.88 1.58-7.78 2.44-11.6 0.292-1.16 0.479-2.46 1.47-3.26z" fill="#0a3079"/><path d="m586 614c-0.0116 2.57 0.21 5.15-0.122 7.7-0.287 1.08-0.555 2.65-1.98 2.49-7.57 1.2-15.3 0.935-22.9 0.813-1.33-2.12-2.03-4.59-2.01-7.09 0.116-0.778-0.455-2.26 0.822-1.97 8.39-0.636 16.8-1.32 25.2-1.92 0.344-0.0158 0.688-0.0152 1.03-0.0151z" fill="#f2a445"/><path d="m597 659c0.236 2.01 0.314 4.04 0.079 6.05 0.198 1.23-1.09 1.76-1.91 2.39-3.73 2.34-8.28 2.71-12.6 2.76-2.86 0.0232-5.72-0.16-8.59-0.211-0.986-1.95-2.21-3.83-2.8-5.95-0.233-0.999-0.193-2.03-0.201-3.05 4.5-0.518 9-1.1 13.5-1.56 4.15-0.38 8.33-0.518 12.5-0.443z" fill="#f7b75b"/><path d="m779 706c3.42-0.192 6.96-0.191 10.2 1.1 1.33 0.508 2.59 1.17 3.81 1.9-0.503 5.18-2.04 10.2-4 15-4.25-0.407-8.53-1.1-12.5-2.78-1.05-0.248-0.065-1.63-0.168-2.4 0.547-3.13 0.938-6.3 1.6-9.41 0.271-1.16 0.677-2.28 1.05-3.41z" fill="#092870"/><path d="m504 502c1.15 0.837 2.13 1.88 3 3-0.166 2.95-2.02 5.48-4.22 7.31-4.25 3.57-8.59 7.18-13.6 9.56-1.79 0.773-3.67 1.52-5.61 1.71-2.96-0.615-5.42-2.5-7.53-4.58 3.03-0.947 6.04-2.01 8.77-3.66 4.45-2.53 8.2-6.07 12.5-8.83 1.46-0.976 3.34-0.785 4.86-1.58 0.914-0.745 1.32-1.93 1.89-2.93z" fill="#f9e1b1"/><path d="m281 267c1.79 1.49 3.25 3.42 3.93 5.67 1.07 3.58 1.91 7.23 2.9 10.8 0.392 1.5 0.781 3 1.17 4.49-2.21 1.14-4.38 2.37-6.64 3.41-1.35 0.686-2.89 0.587-4.36 0.59-0.902-4.77-1.86-9.52-2.7-14.3-0.346-1.97-0.635-4.06 0.0932-5.98 0.303-0.904 0.484-1.92 1.46-2.32 1.29-0.965 2.69-1.72 4.15-2.4z" fill="#0c0b11"/><path d="m842 640c6.7 0.994 13.4 1.78 20.1 3.13 2.74 0.567 5.56 1.46 7.56 3.53 0.312 0.594 1.79 1.07 1.09 1.8-0.908 1.51-1.82 3.03-2.72 4.54-9.37-2.17-18.7-4.36-28-7 0.667-2 1.33-4 2-6z" fill="#274f99"/><path d="m815 634c5.13-0.286 10.2 0.835 15.1 2.14 4.05 0.992 8.06 2.21 11.9 3.86-0.667 2-1.33 4-2 6-9.14-1.21-18.3-2.77-27-6 0.667-2 1.33-4 2-6z" fill="#163f8d"/><path d="m586 685c2.59-0.307 5.45-0.316 7.62 1.35 1.42 1.18 2.17 3 2.89 4.67 1.6 4.24 1.52 8.86 1.47 13.3-0.371 2.68-1.55 5.24-3.54 7.1-1.22 1.46-3.1 2.05-4.72 2.96-6.29 3.11-13.2 5.03-20.3 5.03l6-3c-0.333-0.667-0.667-1.33-1-2 5.38-1.22 10.8-2.37 16.1-3.69 1.47-0.584 3.44-1.44 3.95-2.94 0.824-5.91 0.696-12.4-2.56-17.6-0.867-1.6-3.23-0.399-4.78-0.762-4.93-0.0183-9.86-0.301-14.7-1.04-0.326-1.1 0.556-1.22 1.48-1.3 4.01-0.8 8.05-1.46 12.1-2.11z" fill="#e2bc77"/><path d="m450 286c1 0.667 2 1.33 3 2-2.35 0.87-5.24 2.05-5.14 5.04-0.941 6.99 1.31 13.9 4.15 20.2 3.76 8.99 5.22 18.7 8.56 27.8 1.05 3.41 2.47 6.74 3.26 10.2 0.0855 1.45-0.887 5.37-1.45 2.05-6.86-18.7-12.6-37.9-19.4-56.6-0.664-2.57-2.04-6.27 0.759-8.05 1.87-1.37 4.02-2 6.22-2.63z" fill="#863620"/><path d="m594 646c0.741 0.572 0.943 1.52 0.947 2.41 0.0715 1.53 0.046 3.06 0.0527 4.59-8 0.667-16 1.33-24 2v-7c4.75-0.799 9.48-1.76 14.3-2.26 2.91-0.304 5.83-7e-3 8.73 0.263z" fill="#f1efeb"/><path d="m770 719h5c-0.308 6.32-1.16 12.7-3.5 18.6-0.709 1.73-1.07 3.57-1.5 5.38-2.67-0.667-5.33-1.33-8-2 0.667-0.333 1.33-0.667 2-1 0.523-1.6 0.717-3.27 0.98-4.92 1.04-5.53 2.97-10.8 5.02-16.1z" fill="#355ea4"/><path d="m548 603c0.813 0.0202 1.63 0.0402 2.44 0.06 1.24 2.26 1.9 4.84 1.74 7.42-0.0847 1.88-0.435 3.73-0.741 5.58-2.1 0.747-4.32 1.12-6.55 1.07-1.48-0.0166-2.97-0.046-4.45-0.0671v2h-2c-0.438-2.56-0.132-5.26 1.04-7.6 1.09-2.21 2.57-4.18 4.02-6.16 0.719-0.897 1.43-2.05 2.69-2.2 0.6-0.0904 1.21-0.088 1.81-0.107z" fill="#fb8e2a"/><path d="m563 601c7.23 0.0412 14.5 0.0625 21.7 0.11v5c-3.47 1.07-7.14 1.16-10.7 1.09-4.75-0.0316-9.51-0.051-14.3-0.0932-0.0401-1.67-0.0399-3.33 0-5 0.571-0.747 1.47-1.09 2.39-1.06 0.31-0.0188 0.62-0.0329 0.93-0.0477z" fill="#fcfaf2"/><path d="m520 557c8.21 0.358 16.2 2.57 24 5-0.333 1.67-0.667 3.33-1 5-8.17-0.674-16.2-2.4-24-5 0.333-1.67 0.667-3.33 1-5z" fill="#faf8f5"/><path d="m465 608c10.9 1.47 21.6 4.17 32.4 6.3 12 2.67 24.3 3.32 36.5 3.43 1.38-0.3 4.43 1.86 3.49 2.29-24.5 0.75-49.6-1.54-72.4-11v-1z" fill="#fca245"/><path d="m241 260c0.316 0.0426 0.777-0.0827 1.01 0.0578 0.331 2.31 0.661 4.63 0.992 6.94-5.6 2.45-11.2 4.89-16.8 7.31-2.32 0.752-4.78 0.832-7.19 0.693-0.333-1.67-0.667-3.33-1-5 6.35-2.68 12.8-5 19.5-6.87 1.18-0.36 2.35-0.742 3.52-1.13v-2z" fill="#7b7c7e"/><path d="m799 629c6 1.33 12 2.67 18 4l-2 2c-0.71 1.65-1.38 3.32-2 5-3.38-0.649-6.8-1.16-10.1-2.04-1.69-0.459-3.28-1.22-4.86-1.96 0.333-2.33 0.667-4.67 1-7z" fill="#042773"/><path d="m643 440c3.04 1.08 5.45 3.39 7.44 5.86 2.18 2.72 4.38 5.42 6.56 8.14-0.906 0.443-1.9 1.08-2.95 0.709-1.38-0.356-2.64-1.06-3.97-1.56-4.03-1.72-8.06-3.42-12.1-5.15 0.966-2.67 2.16-5.37 4.27-7.34 0.235-0.229 0.478-0.45 0.726-0.665z" fill="#fde977"/><path d="m558 650c2.33 2.28 3.97 5.25 4.58 8.45 0.301 1.49 0.416 3.02 0.416 4.55-3.67 0.667-7.33 1.33-11 2-0.238-2.8-0.186-5.73 1.01-8.33 0.784-1.74 1.89-3.31 3.1-4.78l1.89-1.89z" fill="#fb983c"/><path d="m589 692v5c-4.88 1.71-9.96 3.02-15.2 3.06-0.948 0.0137-1.9-8e-3 -2.84-0.0613 0.333-1.67 0.667-3.33 1-5 3.05-0.813 6.1-1.62 9.15-2.4 2.58-0.545 5.22-0.739 7.85-0.605z" fill="#f1f0ee"/><path d="m768 701c2.33 0.667 4.67 1.33 7 2-0.442 3.37-0.911 6.77-2 10-2.67-0.333-5.33-0.667-8-1 0.507-2.67 1.01-5.35 1.53-8.02 0.236-0.93 0.375-1.98 1.14-2.65 0.109-0.113 0.22-0.224 0.331-0.335z" fill="#0b2d76"/><path d="m334 279c2.02 8.27 5.68 16 9.29 23.7 0.927 2.11 1.82 4.22 2.71 6.35-1 0.333-2 0.667-3 1-3.52-7.53-7.21-15-10.5-22.6-0.854-2.02-1.64-4.16-1.5-6.39-0.667-0.333-1.33-0.667-2-1 1.62-0.561 3.26-1.15 5-1z" fill="#232128"/><path d="m775 703c3 0.666 6 1.33 9 2v1h-5c-0.46 3.35-0.928 6.69-1.42 10-0.46 2.45-1.28 4.84-2.58 6.97v-4h-5c1.06-2.87 2.17-5.72 3.19-8.6 0.786-2.42 1.38-4.89 1.81-7.4z" fill="#2b4c94"/><path d="m567 201c0.667 0.333 1.33 0.667 2 1-0.4 1.14-0.82 2.28-0.792 3.51-0.0759 2.34 1.23 4.38 2.02 6.5 1.94 4.32 3.65 8.75 5.77 13-1.33 0.333-2.67 0.667-4 1-3.57-7.43-6.55-15.1-9-23 1.29-0.759 2.62-1.42 4-2z" fill="#1e1b23"/><path d="m658 676c0.63-0.0274 1.35-0.148 1.02 0.811 0.185 5.88 0.348 11.8 0.572 17.6 0.224 4.59 0.829 9.21 2.41 13.5-1.67 0.667-3.33 1.33-5 2-1.76-2.38-3.06-5.2-3.07-8.21 0.0559-0.754-0.174-2.49 0.217-2.64l1.85 1.85c1.57-2.94 1.2-6.35 1.41-9.56 0.188-5.15 0.403-10.3 0.59-15.4z" fill="#fbb051"/><path d="m506 557 3 9c-0.443 0.481-0.976 0.956-1.67 0.988-1.94 0.207-3.9 0.048-5.84 0.0633-1.5-2e-3 -2.99-0.0291-4.49-0.0509 0.702-2.5 1.38-5.1 2.96-7.21 1.11-1.5 2.85-2.49 4.71-2.7 0.442-0.0595 0.888-0.0856 1.33-0.0856z" fill="#fc872a"/><path d="m243 267v4c-7.46 2.31-14.7 5.15-22 8-0.333-1.33-0.667-2.67-1-4 6.21-2.15 12.4-4.52 18.3-7.34 1.13-0.524 2.37-0.713 3.61-0.662 0.367-2e-3 0.734-2e-3 1.1-2e-3z" fill="#a0a09f"/><path d="m585 826c1.2 0.474 2.29 1.29 2.59 2.61 0.972 2.85 1.68 5.78 2.6 8.65 1.47 4.99 3.33 9.86 4.98 14.8 0.802 2.91 1.02 5.95 0.824 8.95-3.6-3.68-5.19-8.74-6.51-13.6-1.01-3.93-1.9-7.89-3.07-11.8-0.66-2.47-1.55-4.93-1.41-7.53-5e-3 -0.704-4e-3 -1.41-4e-3 -2.11z" fill="#c0674d"/><path d="m468 505c0.667 0.333 1.33 0.667 2 1-1.7 1.23-3.46 2.41-4.86 4-3.22 3.39-5.06 7.89-5.74 12.5-0.245 1.49-0.266 3.01-0.396 4.52-0.315-0.0364-0.777 0.0733-1-0.0556v-5.94c-1 0.333-2 0.667-3 1v-2h-2c1.14-2.92 3.23-5.35 5.59-7.37 2.52-2.25 5.11-4.42 7.81-6.44 0.531-0.401 1.07-0.799 1.6-1.19z" fill="#edd19c"/><path d="m606 620c1.62 1.56 2.7 3.59 3.35 5.73 0.644 2.12 1.32 4.22 1.97 6.34 0.312 1.35 0.718 2.78 0.244 4.15-0.198 0.522-0.353 1.51-0.636 1.69-1.95-2.46-3.77-5.16-6.54-6.78-0.759-0.452-1.57-0.821-2.39-1.13 1.09-3.42 2.29-6.83 4-10z" fill="#781f06"/><path d="m563 700v3h3c0.433 1 0.888 1.99 1.41 2.95 1.12 2.21 2.19 4.49 3.8 6.39-0.736-0.115-1.47-0.23-2.21-0.345-0.333-1-0.667-2-1-3-3 0.337-6 0.671-9 1v-9c0.961-0.479 1.95-1.05 3.06-0.993 0.313-8e-3 0.627-6e-3 0.94-7e-3z" fill="#f8ba66"/><path d="m541 268v11h-9c0.483-1.94 1.02-3.93 2.2-5.58 1.01-1.43 2.22-2.69 3.33-4.03 0.632-0.573 1.26-1.33 2.18-1.36 0.429-0.0378 0.86-0.0286 1.29-0.0309z" fill="#fcba16"/><path d="m427 594c-0.333 4.67-0.667 9.33-1 14-2.33-2-4.67-4-7-6 0.59-2.32 1.48-4.72 3.32-6.35 1.27-1.14 2.99-1.67 4.68-1.65z" fill="#fdd944"/><path d="m637 147h2c0.131 10.3-0.242 20.7-1 31 1.33 0.333 2.67 0.667 4 1h-7c0.644-10.1 1.33-20.3 1.96-30.4 0.0187-0.534 0.0308-1.07 0.0447-1.6z" fill="#9f9f9d"/><path d="m326 169c2.55 2.49 3.76 5.91 4.99 9.17 0.919 2.37 1.95 4.7 2.73 7.11 0.278 0.878 0.287 1.8 0.28 2.72h-2c-0.333 0.667-0.667 1.33-1 2-1.43-3.53-2.81-7.09-4.25-10.6-0.976-2.51-1.84-5.2-1.37-7.92 0.126-0.838 0.345-1.66 0.621-2.46z" fill="#dfdee0"/><path d="m595 735c-3.97 2.31-8.5 3.31-12.9 4.46-2.33 0.676-4.71 1.13-7.1 1.54l-2-2c3.01-0.768 6-1.62 9.02-2.36 0.951-0.187 2-0.398 2.61-1.23 0.516-0.746 1.59-0.516 2.37-0.78 2.07-0.349 4.24-0.867 6.29-0.175 0.571 0.165 1.13 0.357 1.7 0.544z" fill="#903006"/><path d="m471 523c3.33 1.67 6.67 3.33 10 5-1.16 0.847-2.27 1.77-3.54 2.47-1.05 0.593-2.29 0.529-3.46 0.534-1.1-1.16-2.29-2.39-2.7-3.99-0.329-1.31-0.286-2.67-0.301-4.01z" fill="#f2af50"/><path transform="translate(222,210)" d="m0 0-1 3c-4.29 0.66-8.58 1.32-13 2v-3c2.25-1.12 3.94-1.3 6.44-1.56 0.78-0.09 1.56-0.17 2.37-0.26 2.19-0.18 2.19-0.18 5.19-0.18z" fill="#ACADAB"/></svg>
